<?xml version="1.0" encoding="utf-8"?>
<!-- Generator: Adobe Illustrator 16.0.0, SVG Export Plug-In . SVG Version: 6.00 Build 0)  -->
<!DOCTYPE svg PUBLIC "-//W3C//DTD SVG 1.1//EN" "http://www.w3.org/Graphics/SVG/1.1/DTD/svg11.dtd">
<svg version="1.1" id="Layer_1" xmlns="http://www.w3.org/2000/svg" xmlns:xlink="http://www.w3.org/1999/xlink" x="0px" y="0px"
	 width="325.095px" height="250.692px" viewBox="0 0 325.095 250.692" enable-background="new 0 0 325.095 250.692"
	 xml:space="preserve">
<g>
	<path fill-rule="evenodd" clip-rule="evenodd" d="M115.533,211.924c-0.566,8.293-1.005,8.69-9.345,8.691
		c-5.497,0-11.024,0.326-16.476-0.176c-1.956-0.181-5.13-2.141-5.366-3.659c-2.34-15.04-6.546-29.964-4.093-45.427
		c1.842-11.605,8-21.112,15.585-29.592c11.32-12.652,22.97-25.023,34.853-37.148c3.157-3.221,2.586-6.556,2.626-10.078
		c0.092-8.22,0.674-8.879,8.697-8.883c0.833,0,1.666,0,2.499,0c10.305,0,10.399-0.006,10.971,10.371
		c0.145,2.633,1.071,3.465,3.59,3.426c6.829-0.105,13.66-0.104,20.489-0.001c2.5,0.037,3.763-0.729,3.569-3.413
		c-0.132-1.822-0.019-3.662-0.003-5.495c0.029-3.3,1.804-4.849,4.999-4.874c3.998-0.031,7.997-0.059,11.993,0.007
		c3.445,0.056,5.671,2.065,5.075,5.327c-1.598,8.734,3.177,13.914,8.772,19.597c10.969,11.14,21.37,22.863,31.63,34.671
		c12.265,14.113,15.912,30.611,12.484,48.893c-1.223,6.52-1.976,13.133-2.822,19.719c-0.597,4.646-2.514,7.232-7.777,6.823
		c-5.133-0.399-10.321-0.085-15.485-0.087c-7.798-0.002-8.332-0.509-8.868-8.691C187.413,211.924,151.675,211.924,115.533,211.924z
		 M133.568,135.08c6.064,0,11.764,0,17.368,0c0-3.213,0-6.082,0-8.967c-5.979,0-11.546,0-17.368,0
		C133.568,129.127,133.568,131.883,133.568,135.08z M177.943,135.188c0-3.313,0-6.182,0-9.081c-5.972,0-11.539,0-17.331,0
		c0,3.124,0,5.99,0,9.081C166.479,135.188,172.046,135.188,177.943,135.188z M187.566,135.12c5.958,0,11.656,0,17.423,0
		c0-3.173,0-6.038,0-8.884c-6.049,0-11.737,0-17.423,0C187.566,129.385,187.566,132.141,187.566,135.12z M133.566,153.12
		c5.958,0,11.656,0,17.423,0c0-3.17,0-6.038,0-8.884c-6.052,0-11.739,0-17.423,0C133.566,147.384,133.566,150.141,133.566,153.12z
		 M178.114,153.209c0-3.266,0-6.029,0-9.075c-5.93,0-11.628,0-17.475,0c0,3.142,0,6.009,0,9.075
		C166.536,153.209,172.102,153.209,178.114,153.209z M205.111,153.21c0-3.271,0-6.033,0-9.077c-5.932,0-11.63,0-17.47,0
		c0,3.148,0,6.014,0,9.077C193.54,153.21,199.106,153.21,205.111,153.21z M151.009,171.134c0-3.153,0-6.02,0-8.922
		c-6.039,0-11.734,0-17.463,0c0,3.126,0,5.888,0,8.922C139.481,171.134,145.18,171.134,151.009,171.134z M160.505,171.011
		c6.24,0,11.92,0,17.566,0c0-3.161,0-5.913,0-8.851c-5.976,0-11.675,0-17.566,0C160.505,165.234,160.505,168,160.505,171.011z
		 M187.708,162.082c0,3.302,0,6.171,0,9.081c5.968,0,11.535,0,17.337,0c0-3.122,0-5.987,0-9.081
		C199.181,162.082,193.614,162.082,187.708,162.082z"/>
	<path fill-rule="evenodd" clip-rule="evenodd" d="M263.54,75.281c0,1.499,0.012,2.998-0.002,4.497
		c-0.106,11.516-5.323,15.854-16.754,14.212c-8.218-1.18-16.461-2.229-24.72-3.058c-4.64-0.466-7.576-2.931-9.816-6.706
		c-3.558-5.998-7.063-12.033-10.838-17.893c-0.827-1.284-2.632-2.6-4.084-2.719c-23.503-1.936-46.392,1.184-68.615,9.006
		c-1.383,0.486-2.88,2.21-3.282,3.649c-1.604,5.739-2.917,11.569-4.106,17.412c-1.291,6.347-4.387,10.757-10.858,12.953
		c-7.992,2.714-15.727,6.173-23.638,9.137c-7.43,2.784-14.367-0.007-16.182-7.569c-2.189-9.122-3.415-18.533-4.236-27.892
		c-0.25-2.841,1.576-6.474,3.561-8.795c9.056-10.59,21.416-16.098,34.181-20.558c35.981-12.57,73.203-16.327,111.021-14.049
		c9.82,0.592,19.84,2.698,29.145,5.914c15.419,5.327,16.9,7.564,18.979,25.969c0.241,2.137,0.033,4.324,0.033,6.488
		C263.399,75.281,263.47,75.281,263.54,75.281z"/>
	<path fill-rule="evenodd" clip-rule="evenodd" fill="#FFFFFF" d="M133.568,135.08c0-3.197,0-5.953,0-8.967
		c5.822,0,11.388,0,17.368,0c0,2.885,0,5.754,0,8.967C145.332,135.08,139.633,135.08,133.568,135.08z"/>
	<path fill-rule="evenodd" clip-rule="evenodd" fill="#FFFFFF" d="M177.943,135.188c-5.897,0-11.464,0-17.331,0
		c0-3.091,0-5.957,0-9.081c5.792,0,11.359,0,17.331,0C177.943,129.007,177.943,131.875,177.943,135.188z"/>
	<path fill-rule="evenodd" clip-rule="evenodd" fill="#FFFFFF" d="M187.566,135.12c0-2.979,0-5.735,0-8.884
		c5.687,0,11.374,0,17.423,0c0,2.846,0,5.711,0,8.884C199.222,135.12,193.523,135.12,187.566,135.12z"/>
	<path fill-rule="evenodd" clip-rule="evenodd" fill="#FFFFFF" d="M133.566,153.12c0-2.979,0-5.736,0-8.884
		c5.685,0,11.372,0,17.423,0c0,2.846,0,5.714,0,8.884C145.222,153.12,139.523,153.12,133.566,153.12z"/>
	<path fill-rule="evenodd" clip-rule="evenodd" fill="#FFFFFF" d="M178.114,153.209c-6.013,0-11.579,0-17.475,0
		c0-3.066,0-5.934,0-9.075c5.846,0,11.545,0,17.475,0C178.114,147.18,178.114,149.943,178.114,153.209z"/>
	<path fill-rule="evenodd" clip-rule="evenodd" fill="#FFFFFF" d="M205.111,153.21c-6.005,0-11.571,0-17.47,0
		c0-3.063,0-5.929,0-9.077c5.84,0,11.539,0,17.47,0C205.111,147.177,205.111,149.939,205.111,153.21z"/>
	<path fill-rule="evenodd" clip-rule="evenodd" fill="#FFFFFF" d="M151.009,171.134c-5.83,0-11.528,0-17.463,0
		c0-3.034,0-5.796,0-8.922c5.729,0,11.424,0,17.463,0C151.009,165.114,151.009,167.98,151.009,171.134z"/>
	<path fill-rule="evenodd" clip-rule="evenodd" fill="#FFFFFF" d="M160.505,171.011c0-3.011,0-5.776,0-8.851
		c5.892,0,11.591,0,17.566,0c0,2.938,0,5.689,0,8.851C172.425,171.011,166.745,171.011,160.505,171.011z"/>
	<path fill-rule="evenodd" clip-rule="evenodd" fill="#FFFFFF" d="M187.708,162.082c5.906,0,11.473,0,17.337,0
		c0,3.094,0,5.959,0,9.081c-5.803,0-11.37,0-17.337,0C187.708,168.253,187.708,165.384,187.708,162.082z"/>
	<path d="M108.232,40.092c0.812-0.342,1.622-0.811,2.227-1.505c0.001-0.001,0.001-0.002,0.002-0.003
		c0.215-0.329,0.354-0.669,0.49-0.999c0.559-2.069-0.494-5.51-2.186-5.838c-0.006-0.001-0.013-0.002-0.02-0.003
		c-1.673-0.309-7.391,0.655-9.387,1.011C87,35.078,76.359,40.592,67.933,50.117c-2.048,2.314-3.127,4.965-0.363,7.434
		c2.659,2.377,4.762,0.811,6.779-1.337c8.647-9.206,19.185-14.506,31.863-15.693C107.029,40.411,107.69,40.265,108.232,40.092z"/>
	<path fill-rule="evenodd" clip-rule="evenodd" d="M254.561,105.176c-1.023-3.409-3.659-3.257-6.46-2.538
		c-7.436,1.907-14.722,1.788-21.61-1.999c-2.688-1.479-5.281-1.784-6.854,1.107c-1.321,2.428-0.648,4.916,1.572,6.18
		c0.045,0.023,0.345,0.173,0.868,0.406c2.713,1.005,5.464,1.897,8.113,2.72c4.334,1.047,9.85,1.765,15.685,0.962
		c1.723-0.339,3.326-0.672,4.908-1.053c0.01-0.002,0.019-0.005,0.028-0.008c0.281-0.082,0.562-0.16,0.842-0.251
		C254.062,109.856,255.434,108.085,254.561,105.176z"/>
</g>
</svg>
