<?xml version="1.0" encoding="utf-8"?>
<!-- Generator: Adobe Illustrator 16.0.0, SVG Export Plug-In . SVG Version: 6.00 Build 0)  -->
<!DOCTYPE svg PUBLIC "-//W3C//DTD SVG 1.1//EN" "http://www.w3.org/Graphics/SVG/1.1/DTD/svg11.dtd">
<svg version="1.1" id="Layer_1" xmlns="http://www.w3.org/2000/svg" xmlns:xlink="http://www.w3.org/1999/xlink" x="0px" y="0px"
	 width="325.095px" height="250.692px" viewBox="0 0 325.095 250.692" enable-background="new 0 0 325.095 250.692"
	 xml:space="preserve">
<g>
	<path fill-rule="evenodd" clip-rule="evenodd" d="M144.638,177.534c2.517,1.806,4.905,3.628,7.402,5.286
		c4.051,2.69,8.168,5.284,12.269,7.901c2.526,1.611,5.116,1.659,7.621,0.016c5.874-3.854,11.71-7.768,17.558-11.662
		c0.703-0.469,1.381-0.973,2.174-1.533c26.288,21.937,52.545,43.85,79.238,66.124c-68.705,0-136.778,0-205.504,0
		C92.061,221.411,118.31,199.506,144.638,177.534z"/>
	<path fill-rule="evenodd" clip-rule="evenodd" d="M91.111,126.267c-13.731-8.843-26.969-17.366-40.447-26.048
		c2.478-1.891,4.783-3.653,7.092-5.411c5.534-4.215,11.043-8.463,16.625-12.611c1.192-0.887,1.608-1.823,1.602-3.285
		c-0.053-13.532,0.095-27.067-0.088-40.597c-0.083-6.185,4.081-11.019,10.936-10.921c17.163,0.242,34.333,0.059,51.499,0.108
		c1.806,0.005,3.195-0.471,4.593-1.652c6.67-5.641,13.423-11.185,20.167-16.738c2.99-2.461,6.223-2.46,9.245,0.033
		c6.858,5.657,13.654,11.39,20.558,16.99c0.917,0.744,2.315,1.259,3.493,1.264c17.785,0.085,35.571,0.071,53.356,0.072
		c6.739,0,10.609,3.882,10.606,10.658c-0.005,13.842,0.02,27.685-0.042,41.526c-0.007,1.565,0.477,2.528,1.768,3.413
		c6.818,4.676,13.576,9.438,20.353,14.175c0.88,0.615,1.749,1.248,2.889,2.063c-13.387,8.269-26.551,16.399-40.135,24.79
		c0-2.57,0-4.694,0-6.818c0.005-23.121,0.011-46.242,0.013-69.364c0-4.205-1.168-5.394-5.359-5.394
		c-47.943,0.001-95.886,0.007-143.829,0.017c-3.592,0.001-4.894,1.316-4.894,4.892c-0.001,24.978,0,49.955,0,74.933
		C91.111,123.494,91.111,124.628,91.111,126.267z"/>
	<path fill-rule="evenodd" clip-rule="evenodd" d="M133.218,170.931c-27.752,22.734-55.232,45.245-83.15,68.112
		c0-42.456,0-84.422,0-126.762C77.691,131.766,105.276,151.223,133.218,170.931z"/>
	<path fill-rule="evenodd" clip-rule="evenodd" d="M286.298,112.224c0,42.315,0,84.301,0,126.884
		c-27.957-22.901-55.47-45.438-83.224-68.173C230.944,151.273,258.547,131.801,286.298,112.224z"/>
	<path fill-rule="evenodd" clip-rule="evenodd" d="M168.165,98.995c-18.629,0-37.258,0.014-55.887-0.013
		c-3.531-0.006-5.783-2.006-6.209-5.299c-0.712-5.513,0.748-8.716,4.462-9.667c0.736-0.188,1.526-0.226,2.292-0.226
		c36.717-0.012,73.434-0.007,110.151-0.028c2.797-0.001,5.523,0.457,6.569,3.298c1.216,3.299,1.714,6.993-0.843,9.863
		c-1.097,1.231-3.368,1.973-5.111,1.985C205.114,99.049,186.639,98.996,168.165,98.995z"/>
	<path fill-rule="evenodd" clip-rule="evenodd" d="M168.172,72.605c-18.16,0.001-36.32-0.02-54.481,0.023
		c-2.743,0.006-5.472-0.099-6.794-2.883c-1.446-3.041-1.437-6.33,0.022-9.395c1.084-2.279,3.286-2.861,5.668-2.861
		c5.409,0,10.818-0.024,16.228-0.025c30.756-0.003,61.512-0.001,92.268-0.001c0.231,0,0.464-0.001,0.695,0
		c7.11,0.052,9.575,2.996,8.436,10.076c-0.507,3.147-2.795,5.058-6.17,5.06C205.42,72.611,186.796,72.604,168.172,72.605z"/>
	<path fill-rule="evenodd" clip-rule="evenodd" d="M150.403,110.176c12.287,0,24.575,0.033,36.862-0.025
		c2.816-0.014,5.503,0.404,6.567,3.247c1.205,3.221,1.48,6.682-0.625,9.754c-1.301,1.899-3.407,2.209-5.579,2.208
		c-18.083-0.008-36.167,0.001-54.25,0.003c-6.724,0-13.447-0.032-20.17,0.004c-2.908,0.015-5.65-0.592-6.602-3.599
		c-1.029-3.253-1.55-6.898,1.076-9.629c1.154-1.2,3.401-1.857,5.163-1.88C125.362,110.104,137.883,110.176,150.403,110.176z"/>
</g>
</svg>
