<svg width="161" height="49" viewBox="0 0 161 49" fill="none" xmlns="http://www.w3.org/2000/svg">
<path d="M5.94641 41.7223C5.94641 40.3116 6.25716 39.227 6.87819 38.4685C7.49875 37.7105 8.27214 37.3314 9.19788 37.3314C9.79568 37.3314 10.3415 37.5005 10.8343 37.8396C11.3271 38.1782 11.7173 38.6701 12.0053 39.3157C12.2928 39.9609 12.4368 40.7292 12.4368 41.621C12.4368 42.8482 12.1586 43.8469 11.6016 44.618C10.9885 45.4684 10.1845 45.8935 9.19184 45.8935C8.19085 45.8935 7.38588 45.4573 6.77646 44.584C6.22325 43.7939 5.94641 42.8403 5.94641 41.7223ZM6.87261 41.7372C6.87261 42.7572 7.09697 43.5491 7.54706 44.1121C7.99669 44.6751 8.5434 44.9566 9.18626 44.9566C9.84492 44.9566 10.3972 44.6723 10.8427 44.1033C11.2886 43.5348 11.5111 42.6991 11.5111 41.5955C11.5111 40.8839 11.3968 40.2475 11.1673 39.6864C10.9904 39.2572 10.7242 38.9135 10.3684 38.6557C10.0131 38.3974 9.62382 38.2688 9.20299 38.2688C8.52529 38.2688 7.96789 38.5507 7.52895 39.1155C7.09139 39.6808 6.87261 40.5546 6.87261 41.7372Z" fill="white"/>
<path d="M16.6419 45.7523V44.9961C16.4918 45.286 16.2981 45.5071 16.0608 45.6594C15.8234 45.8118 15.5675 45.888 15.2934 45.888C14.7142 45.888 14.2126 45.6139 13.7894 45.0663C13.3663 44.5186 13.1549 43.7485 13.1549 42.755C13.1549 42.074 13.2483 41.4966 13.4359 41.0224C13.6236 40.5481 13.8744 40.197 14.1879 39.9675C14.5019 39.7381 14.8503 39.6233 15.2335 39.6233C15.508 39.6233 15.7621 39.6953 15.9972 39.8407C16.2322 39.9856 16.4263 40.1877 16.5806 40.4473V37.4788H17.4218V45.7528L16.6419 45.7523ZM14.0063 42.7615C14.0063 43.5362 14.141 44.1122 14.41 44.4885C14.6794 44.8647 14.9929 45.0528 15.3506 45.0528C15.7045 45.0528 16.0111 44.8721 16.2703 44.5112C16.5309 44.1498 16.6605 43.6045 16.6605 42.8743C16.6605 42.0355 16.5309 41.4233 16.2703 41.0373C16.0106 40.6517 15.6832 40.459 15.2879 40.459C14.9376 40.459 14.6366 40.6443 14.3844 41.015C14.1322 41.3856 14.0063 41.9676 14.0063 42.7615Z" fill="white"/>
<path d="M18.7302 38.6466V37.4784H19.5598V38.6466H18.7302ZM18.7302 45.7524V39.7586H19.5598V45.7524H18.7302Z" fill="white"/>
<path d="M20.5139 43.9575L21.3435 43.7996C21.3918 44.2227 21.5256 44.5376 21.743 44.7434C21.9604 44.9492 22.2502 45.0523 22.6102 45.0523C22.9702 45.0523 23.2493 44.9631 23.4467 44.7843C23.6437 44.6055 23.7422 44.3788 23.7422 44.1043C23.7422 43.8669 23.6572 43.683 23.4881 43.5515C23.3715 43.4609 23.0895 43.3481 22.6413 43.2129C21.9943 43.0132 21.5618 42.8441 21.3435 42.7047C21.1252 42.5654 20.9556 42.3796 20.8353 42.146C20.715 41.9128 20.6547 41.6476 20.6547 41.3503C20.6547 40.8384 20.8186 40.4227 21.1461 40.1026C21.4731 39.7831 21.9264 39.6233 22.5061 39.6233C22.8708 39.6233 23.1922 39.6892 23.4686 39.8207C23.7449 39.9526 23.9568 40.1291 24.1035 40.3516C24.2498 40.5736 24.3511 40.8914 24.4078 41.3052L23.5954 41.4409C23.5201 40.7864 23.1643 40.4589 22.5284 40.4589C22.1675 40.4589 21.8981 40.5309 21.7211 40.6754C21.5442 40.8198 21.4564 41.0042 21.4564 41.2291C21.4564 41.4502 21.5409 41.6243 21.7105 41.7516C21.8126 41.8264 22.1141 41.9467 22.6153 42.1111C23.3046 42.3304 23.7505 42.5046 23.953 42.6346C24.156 42.7642 24.313 42.9416 24.4259 43.166C24.5383 43.3903 24.5945 43.6574 24.5945 43.9663C24.5945 44.539 24.4129 45.0026 24.0497 45.357C23.6864 45.7114 23.1908 45.8889 22.5623 45.8889C21.3848 45.8879 20.7016 45.2441 20.5139 43.9575Z" fill="white"/>
<path d="M25.5759 45.7523V37.4788H26.406V40.4473C26.6015 40.1728 26.8222 39.9671 27.0693 39.8296C27.3155 39.6921 27.5872 39.6238 27.8849 39.6238C28.4075 39.6238 28.8209 39.7901 29.1233 40.1231C29.4261 40.4562 29.578 41.0665 29.578 41.9542V45.7528H28.7489V41.9542C28.7489 41.4353 28.6565 41.0623 28.4721 40.8371C28.2876 40.6113 28.0336 40.4984 27.7098 40.4984C27.3489 40.4984 27.0414 40.6438 26.7873 40.9332C26.5333 41.2231 26.4064 41.7363 26.4064 42.4739V45.7533H25.5759V45.7523Z" fill="white"/>
<path d="M34.0475 45.0128C33.7688 45.3027 33.4794 45.521 33.1784 45.6673C32.8774 45.8141 32.5653 45.8879 32.2415 45.8879C31.7296 45.8879 31.3218 45.7337 31.0166 45.4248C30.7119 45.1164 30.5596 44.7007 30.5596 44.1777C30.5596 43.8316 30.6306 43.525 30.7742 43.258C30.9172 42.9909 31.1128 42.7819 31.3613 42.6309C31.6098 42.4809 31.986 42.3694 32.49 42.2979C33.1677 42.1984 33.6638 42.08 33.9801 41.942L33.9861 41.6824C33.9861 41.2722 33.9128 40.9847 33.7655 40.8189C33.5588 40.5783 33.2406 40.458 32.8119 40.458C32.4241 40.458 32.1342 40.5383 31.9428 40.6995C31.7505 40.8602 31.6098 41.1617 31.5192 41.6039L30.7008 41.4683C30.8174 40.8249 31.0538 40.3563 31.4091 40.0632C31.7645 39.7701 32.2736 39.6233 32.9359 39.6233C33.4511 39.6233 33.8556 39.7199 34.1487 39.9136C34.4427 40.1078 34.6276 40.3479 34.7047 40.6336C34.7818 40.9192 34.8204 41.3373 34.8204 41.8863V43.2408C34.8204 44.1888 34.838 44.7862 34.8743 45.0328C34.9096 45.279 34.9806 45.5191 35.0856 45.7523H34.2165C34.1306 45.5456 34.0739 45.2994 34.0475 45.0128ZM33.9801 42.7442C33.6759 42.8947 33.2221 43.0229 32.6196 43.1279C32.2698 43.1883 32.0255 43.257 31.8862 43.3337C31.7468 43.4112 31.6391 43.5199 31.5619 43.6611C31.4848 43.8023 31.4458 43.9649 31.4458 44.1493C31.4458 44.4355 31.5345 44.664 31.7115 44.8354C31.888 45.0068 32.1323 45.0923 32.445 45.0923C32.7422 45.0923 33.0126 45.0151 33.2546 44.8609C33.4975 44.7067 33.6791 44.501 33.7994 44.2432C33.9197 43.9854 33.9801 43.61 33.9801 43.1168V42.7442Z" fill="white"/>
<path d="M43.6876 42.8515L44.5901 43.1279C44.3908 44.0573 44.042 44.7504 43.5431 45.2079C43.0452 45.6649 42.4381 45.8939 41.7233 45.8939C41.0943 45.8939 40.5574 45.7407 40.1119 45.4336C39.6655 45.1271 39.3009 44.6347 39.0171 43.957C38.7333 43.2793 38.5907 42.479 38.5907 41.5565C38.5907 40.6456 38.7333 39.8746 39.0171 39.2438C39.3018 38.613 39.6864 38.1364 40.1728 37.815C40.6582 37.4931 41.2007 37.3319 41.7994 37.3319C42.4548 37.3319 43.0178 37.5354 43.4888 37.9427C43.9598 38.3501 44.2891 38.9479 44.4777 39.7361L43.597 39.9897C43.296 38.8424 42.6913 38.2688 41.7836 38.2688C41.3308 38.2688 40.9392 38.3845 40.608 38.6162C40.2759 38.8476 40.0116 39.208 39.8137 39.6976C39.6158 40.1876 39.5169 40.8068 39.5169 41.556C39.5169 42.6894 39.7162 43.5399 40.1152 44.1066C40.5137 44.6733 41.0442 44.9566 41.7065 44.9566C42.1956 44.9566 42.6183 44.7824 42.9741 44.4345C43.3299 44.0866 43.5673 43.5585 43.6876 42.8515Z" fill="white"/>
<path d="M45.2789 42.7554C45.2789 41.7205 45.4968 40.9401 45.9311 40.4134C46.3658 39.8862 46.9153 39.6233 47.5819 39.6233C48.2364 39.6233 48.784 39.8862 49.2244 40.4134C49.6642 40.9401 49.8849 41.7 49.8849 42.6931C49.8849 43.7694 49.6679 44.5706 49.2355 45.0978C48.8026 45.6246 48.2517 45.8879 47.5819 45.8879C46.9232 45.8879 46.3747 45.6236 45.9367 45.0946C45.4986 44.566 45.2789 43.7866 45.2789 42.7554ZM46.1313 42.7526C46.1313 43.5288 46.2725 44.1061 46.5544 44.4847C46.8364 44.8633 47.1866 45.0528 47.6042 45.0528C47.9962 45.0528 48.3316 44.8619 48.6121 44.4796C48.8927 44.0973 49.0321 43.5213 49.0321 42.7531C49.0321 41.9806 48.8913 41.4056 48.6094 41.0265C48.3274 40.6484 47.9772 40.4585 47.5591 40.4585C47.1639 40.4585 46.8276 40.6489 46.5489 41.0293C46.2706 41.4097 46.1313 41.9843 46.1313 42.7526Z" fill="white"/>
<path d="M50.8718 45.7524V39.7586H51.6169V40.5942C51.7822 40.2834 51.9945 40.0442 52.2532 39.8756C52.5129 39.7075 52.7967 39.6234 53.1042 39.6234C53.4498 39.6234 53.7419 39.7121 53.9807 39.89C54.2194 40.0679 54.389 40.3266 54.4907 40.6676C54.6872 40.3197 54.9125 40.0582 55.1675 39.884C55.4225 39.7102 55.7044 39.6229 56.0138 39.6229C56.4862 39.6229 56.8573 39.7827 57.1295 40.1023C57.4012 40.4219 57.5373 40.9342 57.5373 41.6379V45.7519H56.7077V41.9719C56.7077 41.5427 56.6766 41.2384 56.6144 41.0596C56.5517 40.8803 56.4504 40.7419 56.3106 40.6439C56.1708 40.5459 56.0138 40.4971 55.8396 40.4971C55.4805 40.4971 55.1874 40.6397 54.9598 40.924C54.7322 41.2082 54.6194 41.6556 54.6194 42.2659V45.7519H53.7902V41.8534C53.7902 41.3564 53.7141 41.0057 53.5617 40.8023C53.4094 40.5988 53.1994 40.4971 52.9323 40.4971C52.5524 40.4971 52.2523 40.6508 52.0321 40.9574C51.8115 41.2644 51.7019 41.8246 51.7019 42.6384V45.7515H50.8718V45.7524Z" fill="white"/>
<path d="M58.7622 48.0493V39.7581H59.53V40.537C59.7177 40.2138 59.9262 39.9806 60.1552 39.8371C60.3842 39.694 60.6476 39.6229 60.9444 39.6229C61.3309 39.6229 61.6802 39.7377 61.9923 39.9671C62.304 40.1966 62.5548 40.5454 62.7443 41.0141C62.9338 41.4823 63.0291 42.0462 63.0291 42.7044C63.0291 43.7239 62.8149 44.5099 62.3885 45.0608C61.9612 45.6121 61.4595 45.8876 60.8845 45.8876C60.6285 45.8876 60.3893 45.8211 60.1678 45.6897C59.9453 45.5582 59.7534 45.3715 59.5918 45.1309V48.0489L58.7622 48.0493ZM59.5193 42.7894C59.5193 43.5646 59.6489 44.135 59.9081 44.5024C60.1673 44.8699 60.4799 45.0529 60.8483 45.0529C61.2013 45.0529 61.5106 44.8629 61.7772 44.4825C62.0434 44.103 62.1767 43.5159 62.1767 42.7216C62.1767 41.9389 62.0471 41.3597 61.7879 40.9834C61.5292 40.6072 61.2138 40.4191 60.8427 40.4191C60.5082 40.4191 60.204 40.6216 59.9299 41.0262C59.6564 41.4298 59.5193 42.0179 59.5193 42.7894Z" fill="white"/>
<path d="M67.2509 45.7523V44.872C67.0596 45.2107 66.8338 45.4643 66.5737 45.6343C66.314 45.8034 66.021 45.8884 65.693 45.8884C65.3056 45.8884 64.9744 45.7834 64.6995 45.5748C64.425 45.3663 64.2415 45.1015 64.1495 44.7819C64.0571 44.4624 64.0106 44.0257 64.0106 43.4725V39.7589H64.8407V43.0833C64.8407 43.7001 64.8713 44.1135 64.9336 44.3221C64.9958 44.5306 65.1101 44.6983 65.2778 44.8242C65.4445 44.9501 65.6359 45.0133 65.85 45.0133C66.249 45.0133 66.5765 44.8493 66.8324 44.5223C67.0503 44.2399 67.1594 43.7224 67.1594 42.9699V39.7584H67.9946V45.7523H67.2509Z" fill="white"/>
<path d="M71.1564 44.8439L71.2693 45.7413C71.0398 45.8017 70.8331 45.8314 70.6483 45.8314C70.3589 45.8314 70.1257 45.7743 69.9487 45.6596C69.7718 45.5448 69.6501 45.3878 69.5846 45.1881C69.5191 44.9884 69.4861 44.5917 69.4861 43.9971V40.5487H68.8762V39.7586H69.4861V38.2746L70.3152 37.6647V39.7586H71.1564V40.5487H70.3152V44.0538C70.3152 44.3771 70.3398 44.5861 70.3886 44.6804C70.4602 44.816 70.5935 44.8839 70.7895 44.8839C70.8838 44.8834 71.0059 44.8704 71.1564 44.8439Z" fill="white"/>
<path d="M75.2992 43.8224L76.1572 43.952C76.0141 44.5916 75.7554 45.0742 75.3815 45.3994C75.0066 45.725 74.543 45.888 73.9898 45.888C73.294 45.888 72.7306 45.6237 72.2995 45.0947C71.8685 44.5661 71.653 43.8034 71.653 42.8061C71.653 41.7712 71.8703 40.982 72.3046 40.4386C72.7394 39.8947 73.2898 39.6229 73.9559 39.6229C74.5918 39.6229 75.1223 39.89 75.5473 40.4242C75.9728 40.9583 76.185 41.7317 76.185 42.7439L76.1795 43.0147H72.5109C72.5448 43.6882 72.7008 44.1963 72.9795 44.5387C73.2582 44.881 73.5969 45.0519 73.9954 45.0519C74.6201 45.0524 75.0549 44.6423 75.2992 43.8224ZM72.5615 42.18H75.3048C75.2667 41.6607 75.1562 41.2733 74.9713 41.0173C74.7042 40.6448 74.3637 40.4585 73.9499 40.4585C73.5774 40.4585 73.2596 40.6137 72.9958 40.9244C72.7334 41.2347 72.588 41.6532 72.5615 42.18Z" fill="white"/>
<path d="M77.212 45.7523V39.7585H77.9631V40.6675C78.1545 40.2462 78.3305 39.9665 78.4908 39.8291C78.651 39.6916 78.8303 39.6233 79.0296 39.6233C79.3083 39.6233 79.5921 39.732 79.8819 39.9503L79.6 40.8928C79.3933 40.7464 79.1917 40.6726 78.9957 40.6726C78.8187 40.6726 78.6571 40.7348 78.5103 40.8588C78.364 40.9829 78.2599 41.1561 78.2 41.3777C78.0946 41.7655 78.0421 42.1775 78.0421 42.6137V45.7518L77.212 45.7523Z" fill="white"/>
<path d="M81.8569 45.7524L84.4739 37.4784H85.4335L88.2117 45.7524H87.1847L86.3955 43.2465H83.5412L82.8036 45.7524H81.8569ZM83.8041 42.3551H86.1154L85.4098 40.0633C85.192 39.3596 85.0322 38.7878 84.931 38.3479C84.8432 38.8784 84.7191 39.4051 84.5589 39.9281L83.8041 42.3551Z" fill="white"/>
<path d="M88.8049 48.0493V39.7581H89.5727V40.537C89.7604 40.2138 89.969 39.9806 90.1979 39.8371C90.4269 39.694 90.6903 39.6229 90.9871 39.6229C91.3736 39.6229 91.7229 39.7377 92.035 39.9671C92.3467 40.1966 92.5975 40.5454 92.787 41.0141C92.9766 41.4823 93.0718 42.0462 93.0718 42.7044C93.0718 43.7239 92.8577 44.5099 92.4312 45.0608C92.0039 45.6121 91.5023 45.8876 90.9272 45.8876C90.6713 45.8876 90.4321 45.8211 90.2105 45.6897C89.988 45.5582 89.7962 45.3715 89.6345 45.1309V48.0489L88.8049 48.0493ZM89.5621 42.7894C89.5621 43.5646 89.6917 44.135 89.9508 44.5024C90.21 44.8699 90.5226 45.0529 90.891 45.0529C91.244 45.0529 91.5533 44.8629 91.82 44.4825C92.0861 44.103 92.2194 43.5159 92.2194 42.7216C92.2194 41.9389 92.0898 41.3597 91.8306 40.9834C91.5719 40.6072 91.2565 40.4191 90.8854 40.4191C90.551 40.4191 90.2467 40.6216 89.9727 41.0262C89.6991 41.4298 89.5621 42.0179 89.5621 42.7894Z" fill="white"/>
<path d="M94.0764 48.0493V39.7581H94.8438V40.537C95.0314 40.2138 95.2404 39.9806 95.4694 39.8371C95.6984 39.694 95.9618 39.6229 96.2582 39.6229C96.6455 39.6229 96.9948 39.7377 97.3065 39.9671C97.6182 40.1966 97.869 40.5454 98.0585 41.0141C98.2485 41.4823 98.3428 42.0462 98.3428 42.7044C98.3428 43.7239 98.1296 44.5099 97.7023 45.0608C97.2754 45.6121 96.7742 45.8876 96.1982 45.8876C95.9423 45.8876 95.704 45.8211 95.4815 45.6897C95.2595 45.5582 95.0676 45.3715 94.906 45.1309V48.0489L94.0764 48.0493ZM94.834 42.7894C94.834 43.5646 94.9631 44.135 95.2223 44.5024C95.4815 44.8699 95.7946 45.0529 96.1625 45.0529C96.515 45.0529 96.8248 44.8629 97.091 44.4825C97.3576 44.103 97.4909 43.5159 97.4909 42.7216C97.4909 41.9389 97.3613 41.3597 97.1026 40.9834C96.8429 40.6072 96.5285 40.4191 96.1564 40.4191C95.8225 40.4191 95.5187 40.6216 95.2446 41.0262C94.971 41.4298 94.834 42.0179 94.834 42.7894Z" fill="white"/>
<path d="M99.3196 45.7523V37.4788H100.149V45.7528L99.3196 45.7523Z" fill="white"/>
<path d="M101.453 38.6466V37.4784H102.283V38.6466H101.453ZM101.453 45.7524V39.7586H102.283V45.7524H101.453Z" fill="white"/>
<path d="M106.776 43.5572L107.594 43.6868C107.5 44.4016 107.264 44.9474 106.886 45.3232C106.508 45.6999 106.053 45.888 105.522 45.888C104.879 45.888 104.35 45.6237 103.933 45.0947C103.518 44.5661 103.31 43.7848 103.31 42.7499C103.31 41.7076 103.52 40.9258 103.939 40.4047C104.358 39.8835 104.897 39.6229 105.556 39.6229C106.064 39.6229 106.492 39.7809 106.84 40.0972C107.188 40.4135 107.411 40.8873 107.509 41.5195L106.702 41.6662C106.623 41.2617 106.485 40.9593 106.29 40.7591C106.094 40.5584 105.859 40.4585 105.584 40.4585C105.174 40.4585 104.834 40.6402 104.565 41.0034C104.296 41.3662 104.161 41.9426 104.161 42.7332C104.161 43.5498 104.29 44.1406 104.548 44.5052C104.806 44.8703 105.136 45.0529 105.539 45.0529C105.855 45.0529 106.125 44.9316 106.349 44.6892C106.573 44.4467 106.715 44.0686 106.776 43.5572Z" fill="white"/>
<path d="M111.5 45.0128C111.221 45.3027 110.931 45.521 110.631 45.6673C110.33 45.8141 110.017 45.8879 109.693 45.8879C109.181 45.8879 108.773 45.7337 108.468 45.4248C108.164 45.1164 108.011 44.7007 108.011 44.1777C108.011 43.8316 108.083 43.525 108.226 43.258C108.369 42.9909 108.564 42.7819 108.813 42.6309C109.061 42.4809 109.438 42.3694 109.942 42.2979C110.619 42.1984 111.116 42.08 111.432 41.942L111.437 41.6824C111.437 41.2722 111.364 40.9847 111.218 40.8189C111.01 40.5783 110.692 40.458 110.263 40.458C109.876 40.458 109.586 40.5383 109.394 40.6995C109.203 40.8602 109.061 41.1617 108.971 41.6039L108.152 41.4683C108.269 40.8249 108.505 40.3563 108.86 40.0632C109.216 39.7696 109.725 39.6233 110.387 39.6233C110.902 39.6233 111.307 39.7199 111.601 39.9136C111.894 40.1078 112.079 40.3479 112.156 40.6336C112.233 40.9192 112.272 41.3373 112.272 41.8863V43.2408C112.272 44.1888 112.29 44.7862 112.325 45.0328C112.361 45.279 112.432 45.5191 112.537 45.7523H111.668C111.582 45.5456 111.526 45.2994 111.5 45.0128ZM111.431 42.7442C111.127 42.8947 110.673 43.0229 110.071 43.1279C109.721 43.1883 109.477 43.257 109.337 43.3337C109.198 43.4112 109.09 43.5199 109.013 43.6611C108.936 43.8023 108.897 43.9649 108.897 44.1493C108.897 44.4355 108.985 44.664 109.162 44.8354C109.339 45.0068 109.584 45.0923 109.896 45.0923C110.193 45.0923 110.463 45.0151 110.706 44.8609C110.948 44.7067 111.13 44.501 111.251 44.2432C111.371 43.9854 111.431 43.61 111.431 43.1168V42.7442Z" fill="white"/>
<path d="M115.422 44.8439L115.535 45.7413C115.305 45.8017 115.098 45.8314 114.914 45.8314C114.624 45.8314 114.391 45.7743 114.214 45.6596C114.037 45.5448 113.915 45.3878 113.85 45.1881C113.784 44.9884 113.751 44.5917 113.751 43.9971V40.5487H113.141V39.7586H113.751V38.2746L114.581 37.6647V39.7586H115.422V40.5487H114.581V44.0538C114.581 44.3771 114.605 44.5861 114.654 44.6804C114.725 44.816 114.858 44.8839 115.054 44.8839C115.149 44.8834 115.271 44.8704 115.422 44.8439Z" fill="white"/>
<path d="M116.206 38.6466V37.4784H117.036V38.6466H116.206ZM116.206 45.7524V39.7586H117.036V45.7524H116.206Z" fill="white"/>
<path d="M117.995 42.7554C117.995 41.7205 118.213 40.9401 118.647 40.4134C119.082 39.8862 119.632 39.6233 120.298 39.6233C120.953 39.6233 121.5 39.8862 121.941 40.4134C122.38 40.9401 122.601 41.7 122.601 42.6931C122.601 43.7694 122.384 44.5706 121.952 45.0978C121.519 45.6246 120.968 45.8879 120.298 45.8879C119.639 45.8879 119.091 45.6236 118.653 45.0946C118.215 44.566 117.995 43.7866 117.995 42.7554ZM118.847 42.7526C118.847 43.5288 118.989 44.1061 119.271 44.4847C119.553 44.8633 119.903 45.0528 120.32 45.0528C120.712 45.0528 121.048 44.8619 121.328 44.4796C121.609 44.0973 121.748 43.5213 121.748 42.7531C121.748 41.9806 121.607 41.4056 121.326 41.0265C121.044 40.6484 120.693 40.4585 120.275 40.4585C119.88 40.4585 119.544 40.6489 119.265 41.0293C118.987 41.4097 118.847 41.9843 118.847 42.7526Z" fill="white"/>
<path d="M123.583 45.7523V39.7585H124.333V40.6052C124.513 40.2759 124.734 40.0302 124.995 39.8671C125.257 39.7041 125.556 39.6233 125.894 39.6233C126.157 39.6233 126.4 39.6748 126.624 39.7784C126.847 39.882 127.027 40.0176 127.164 40.1849C127.301 40.3521 127.404 40.5695 127.472 40.8366C127.539 41.1036 127.573 41.5138 127.573 42.0665V45.7523H126.743V42.1028C126.743 41.662 126.706 41.3396 126.631 41.1366C126.555 40.9332 126.438 40.7762 126.278 40.6647C126.117 40.5537 125.932 40.4979 125.722 40.4979C125.323 40.4979 125.005 40.6466 124.768 40.9443C124.531 41.2421 124.412 41.7525 124.412 42.4758V45.7528L123.583 45.7523Z" fill="white"/>
<path d="M136.423 42.8515L137.326 43.1279C137.126 44.0573 136.777 44.7504 136.279 45.2079C135.78 45.6654 135.173 45.8939 134.458 45.8939C133.83 45.8939 133.293 45.7407 132.847 45.4336C132.401 45.1271 132.036 44.6347 131.752 43.957C131.468 43.2793 131.326 42.479 131.326 41.5565C131.326 40.6456 131.468 39.8746 131.753 39.2438C132.037 38.613 132.422 38.1364 132.908 37.815C133.394 37.4931 133.936 37.3319 134.535 37.3319C135.19 37.3319 135.753 37.5354 136.224 37.9427C136.695 38.3501 137.025 38.9479 137.213 39.7361L136.332 39.9897C136.031 38.8424 135.426 38.2688 134.518 38.2688C134.066 38.2688 133.674 38.3845 133.343 38.6162C133.011 38.8476 132.747 39.208 132.549 39.6976C132.351 40.1876 132.252 40.8068 132.252 41.556C132.252 42.6894 132.451 43.5399 132.85 44.1066C133.249 44.6733 133.779 44.9566 134.442 44.9566C134.931 44.9566 135.353 44.7824 135.709 44.4345C136.064 44.0866 136.302 43.5585 136.423 42.8515Z" fill="white"/>
<path d="M141.689 43.8224L142.546 43.952C142.403 44.5916 142.145 45.0742 141.771 45.3994C141.396 45.725 140.932 45.888 140.379 45.888C139.683 45.888 139.12 45.6237 138.689 45.0947C138.258 44.5661 138.042 43.8034 138.042 42.8061C138.042 41.7712 138.26 40.982 138.694 40.4386C139.129 39.8947 139.679 39.6229 140.345 39.6229C140.981 39.6229 141.512 39.89 141.937 40.4242C142.362 40.9583 142.574 41.7317 142.574 42.7439L142.569 43.0147H138.9C138.934 43.6882 139.09 44.1963 139.369 44.5387C139.648 44.881 139.986 45.0519 140.385 45.0519C141.009 45.0524 141.444 44.6423 141.689 43.8224ZM138.951 42.18H141.694C141.656 41.6607 141.545 41.2733 141.361 41.0173C141.094 40.6448 140.753 40.4585 140.339 40.4585C139.967 40.4585 139.649 40.6137 139.385 40.9244C139.122 41.2347 138.977 41.6532 138.951 42.18Z" fill="white"/>
<path d="M143.601 45.7523V39.7585H144.352V40.6052C144.533 40.2759 144.753 40.0302 145.014 39.8671C145.275 39.7041 145.575 39.6233 145.913 39.6233C146.176 39.6233 146.419 39.6748 146.642 39.7784C146.866 39.882 147.046 40.0176 147.184 40.1849C147.321 40.3521 147.423 40.5695 147.491 40.8366C147.558 41.1036 147.592 41.5138 147.592 42.0665V45.7523H146.762V42.1028C146.762 41.662 146.725 41.3396 146.65 41.1366C146.575 40.9332 146.457 40.7762 146.297 40.6647C146.137 40.5537 145.952 40.4979 145.741 40.4979C145.342 40.4979 145.024 40.6466 144.787 40.9443C144.55 41.2421 144.431 41.7525 144.431 42.4758V45.7528L143.601 45.7523Z" fill="white"/>
<path d="M150.724 44.8439L150.837 45.7413C150.608 45.8017 150.401 45.8314 150.216 45.8314C149.926 45.8314 149.693 45.7743 149.516 45.6596C149.339 45.5448 149.218 45.3878 149.153 45.1881C149.086 44.9884 149.054 44.5917 149.054 43.9971V40.5487H148.444V39.7586H149.054V38.2746L149.883 37.6647V39.7586H150.724V40.5487H149.883V44.0538C149.883 44.3771 149.907 44.5861 149.956 44.6804C150.028 44.816 150.161 44.8839 150.357 44.8839C150.452 44.8834 150.574 44.8704 150.724 44.8439Z" fill="white"/>
<path d="M151.508 45.7523V39.7585H152.259V40.6675C152.451 40.2462 152.627 39.9665 152.787 39.8291C152.947 39.6916 153.126 39.6233 153.326 39.6233C153.604 39.6233 153.888 39.732 154.178 39.9503L153.896 40.8928C153.689 40.7464 153.488 40.6726 153.292 40.6726C153.115 40.6726 152.953 40.7348 152.807 40.8588C152.66 40.9829 152.556 41.1561 152.496 41.3777C152.391 41.7655 152.338 42.1775 152.338 42.6137V45.7518L151.508 45.7523Z" fill="white"/>
<path d="M158.022 43.8224L158.88 43.952C158.737 44.5916 158.478 45.0742 158.104 45.3994C157.729 45.725 157.265 45.888 156.713 45.888C156.016 45.888 155.453 45.6237 155.022 45.0947C154.591 44.5661 154.375 43.8034 154.375 42.8061C154.375 41.7712 154.593 40.982 155.028 40.4386C155.462 39.8947 156.012 39.6229 156.678 39.6229C157.314 39.6229 157.845 39.89 158.27 40.4242C158.695 40.9583 158.908 41.7317 158.908 42.7439L158.902 43.0147H155.234C155.267 43.6882 155.423 44.1963 155.702 44.5387C155.981 44.881 156.319 45.0519 156.718 45.0519C157.343 45.0524 157.777 44.6423 158.022 43.8224ZM155.284 42.18H158.027C157.99 41.6607 157.879 41.2733 157.694 41.0173C157.427 40.6448 157.086 40.4585 156.672 40.4585C156.3 40.4585 155.982 40.6137 155.719 40.9244C155.455 41.2347 155.311 41.6532 155.284 42.18Z" fill="white"/>
<path d="M5.46338 33.8395H157.516" stroke="white" stroke-miterlimit="10"/>
<path d="M9.84962 17.0578L7.38686 18.4499L4.92411 19.842L2.46229 18.4499L0 17.0578V14.2727V11.488L2.46229 10.0955L4.92411 8.70337L7.38686 10.0955L9.84962 11.488L9.84915 14.2727L9.84962 17.0578Z" fill="white"/>
<path d="M31.0882 17.0578L28.6264 18.4499L26.1641 19.842L23.7009 18.4499L21.2395 17.0578V14.2727V11.488L23.7009 10.0955L26.1641 8.70337L28.6264 10.0955L31.0882 11.488V14.2727V17.0578Z" fill="white"/>
<path d="M15.6962 20.7978L15.6976 23.5819L15.698 26.3657L18.1612 27.7573L20.624 29.1503L23.0854 27.7587L25.5486 26.3666L25.5472 23.5829L25.5458 20.7987L23.083 19.4066L20.6203 18.014L18.158 19.4061L15.6962 20.7978Z" fill="white"/>
<path d="M5.07642 2.78279L5.07781 5.56697L5.07827 8.35116L7.54103 9.74325L10.0042 11.1353L12.4661 9.74371L14.9274 8.35208L14.9265 5.56837L14.9256 2.78465L12.4628 1.39209L10.0001 0L7.53824 1.39163L5.07642 2.78279Z" fill="white"/>
<path d="M20.6227 11.1548L23.0859 9.76083L25.55 8.36735V5.58223V2.79666L23.0859 1.40457L20.6227 0.0129395L18.1585 1.40689L15.6958 2.80037V5.58595L15.6948 8.37199L18.1585 9.76315L20.6227 11.1548Z" fill="white"/>
<path d="M10.002 29.1693L12.4661 27.7754L14.9298 26.3819V23.5963V20.8107L12.4666 19.4196L10.0024 18.028L7.53922 19.4219L5.07554 20.8154V23.6005L5.07507 26.3861L7.53829 27.7777L10.002 29.1693Z" fill="white"/>
<path fill-rule="evenodd" clip-rule="evenodd" d="M57.3879 0.0806885C62.6534 0.0806885 66.0712 0.976235 67.6412 2.7664C69.2112 4.55749 69.9948 8.44996 69.9957 14.4443C69.9957 20.4386 69.2112 24.3315 67.6412 26.1212C66.0712 27.9123 62.6534 28.8065 57.3879 28.8074C52.1415 28.8074 48.733 27.9123 47.163 26.1212C45.5925 24.331 44.8085 20.4386 44.8085 14.4443C44.8085 8.44996 45.5925 4.55749 47.163 2.7664C48.7335 0.976235 52.141 0.0816175 57.3879 0.0806885ZM57.3879 3.46686C53.6915 3.46686 51.3969 4.06048 50.5018 5.24773C49.6271 6.41547 49.191 9.48021 49.191 14.4438C49.191 19.4065 49.6271 22.4819 50.5018 23.6691C51.3969 24.8364 53.6915 25.4203 57.3879 25.4203C61.1034 25.4203 63.3985 24.8364 64.2741 23.6691C65.1678 22.4819 65.6146 19.4079 65.6146 14.4438C65.6146 9.48021 65.1678 6.41547 64.2741 5.24773C63.399 4.06095 61.1034 3.46779 57.3879 3.46686Z" fill="white"/>
<path d="M96.0789 18.3262H100.251L100.281 19.8446C100.281 25.8203 96.2865 28.8061 88.2986 28.807C83.1715 28.807 79.7821 27.8641 78.1331 25.9755C76.4837 24.0877 75.6602 20.1962 75.6602 14.298C75.6602 8.77149 76.4944 5.02441 78.1633 3.0582C79.8531 1.07341 83.0512 0.0803223 87.7616 0.0803223C92.3908 0.0803223 95.5512 0.751518 97.2406 2.09484C98.9295 3.41865 99.773 5.91902 99.774 9.5969H95.6019V8.86717C95.6019 6.70727 95.0538 5.26734 93.9617 4.54691C92.8683 3.82694 90.6926 3.46742 87.4342 3.46649C84.2942 3.46649 82.2764 4.14744 81.3827 5.51027C80.489 6.8731 80.0413 9.92854 80.0413 14.6766C80.0413 19.3095 80.548 22.2576 81.5616 23.522C82.5951 24.7877 84.9886 25.4195 88.7454 25.4195C91.9244 25.4195 93.9418 25.0112 94.7964 24.1937C95.6506 23.358 96.078 21.402 96.0789 18.3262Z" fill="white"/>
<path fill-rule="evenodd" clip-rule="evenodd" d="M110.446 8.3134H106.302C106.302 5.06333 107.048 2.88392 108.539 1.77377C110.049 0.645514 112.989 0.0816175 117.361 0.0806885C122.11 0.0806885 125.319 0.772321 126.989 2.15326C128.66 3.51656 129.493 6.12377 129.493 9.97722V28.3982H125.321L125.648 25.391L125.559 25.3618C123.969 27.6591 120.739 28.806 115.872 28.8069C108.678 28.8069 105.081 25.9754 105.081 20.3118C105.081 16.9456 105.886 14.6198 107.496 13.3346C109.105 12.0498 112.016 11.4074 116.229 11.4074C121.237 11.4074 124.237 12.3708 125.232 14.298L125.321 14.2682V10.8825C125.321 7.69097 124.873 5.62815 123.979 4.69312C123.085 3.73998 121.127 3.26341 118.107 3.26294C112.98 3.26294 110.416 4.67454 110.416 7.49589C110.416 7.63291 110.426 7.90418 110.446 8.3134ZM117.153 14.5897C113.953 14.5897 111.867 14.9208 110.893 15.5823C109.939 16.2451 109.462 17.6651 109.462 19.8445C109.462 22.1029 109.939 23.6013 110.893 24.3408C111.847 25.0612 113.785 25.4207 116.706 25.4207C122.587 25.4207 125.527 23.6696 125.529 20.1664C125.529 17.9675 124.952 16.489 123.8 15.7291C122.667 14.9691 120.451 14.5897 117.153 14.5897Z" fill="white"/>
<path d="M156.798 18.3262H160.971L161 19.8446C161 25.8203 157.006 28.8061 149.017 28.807C143.891 28.807 140.501 27.8641 138.852 25.9755C137.202 24.0877 136.379 20.1962 136.379 14.298C136.379 8.77149 137.214 5.02441 138.883 3.0582C140.571 1.07341 143.77 0.0803223 148.481 0.0803223C153.11 0.0803223 156.27 0.751518 157.96 2.09484C159.648 3.41865 160.492 5.91902 160.493 9.5969H156.32V8.86717C156.32 6.70727 155.773 5.26734 154.681 4.54691C153.588 3.82694 151.412 3.46742 148.153 3.46649C145.012 3.46649 142.996 4.14744 142.102 5.51027C141.208 6.8731 140.76 9.92854 140.76 14.6766C140.76 19.3095 141.268 22.2576 142.28 23.522C143.314 24.7877 145.708 25.4195 149.464 25.4195C152.643 25.4195 154.661 25.0112 155.516 24.1937C156.369 23.358 156.797 21.402 156.798 18.3262Z" fill="white"/>
</svg>
