<svg width="487" height="252" viewBox="0 0 487 252" fill="none" xmlns="http://www.w3.org/2000/svg">
<path d="M80.6698 103.25V145.438L43.6898 174.061C36.8658 173.32 17.8948 169.677 9.10882 151.919C2.14582 137.844 8.43482 120.574 13.8378 109.996C14.3948 117.741 16.5828 125.174 20.9198 131.999L44.3338 96.499C44.3338 96.499 40.2178 90.499 42.0688 85.249C43.9198 79.999 58.6698 55 64.4198 47.75C70.1698 40.5 75.1698 35.75 80.6698 39.75L103.17 2C103.17 2 94.4198 -2.5 80.6698 2C66.9198 6.5 48.4198 24 32.6698 50.25C23.7798 65.066 16.3268 81.554 14.2598 97.422C10.8868 102.307 -7.83917 131.194 3.73083 154.58C13.5238 174.375 33.4618 178.903 42.0688 179.94V180.306L80.6698 210.896V251.25H486.17V103.25H80.6698Z" fill="#0089D0"/>
<path d="M94.1298 53.671C96.3378 55.035 99.1998 54.406 100.522 52.268L119.378 21.747C120.7 19.607 119.982 16.767 117.773 15.402L105.902 8.06799L82.2598 46.337L94.1298 53.671Z" fill="#0089D0"/>
<path d="M49.0859 99.8719L25.4429 138.141L37.3129 145.475C39.5209 146.839 42.3829 146.21 43.7049 144.072L62.5609 113.551C63.8829 111.411 63.1649 108.571 60.9559 107.206L49.0859 99.8719Z" fill="#0089D0"/>
<path d="M116.508 123.406V149H113.115V123.406H116.508ZM127.23 134.92V137.697H115.77V134.92H127.23ZM128.971 123.406V126.184H115.77V123.406H128.971ZM152.719 135.395V137.012C152.719 138.934 152.479 140.656 151.998 142.18C151.518 143.703 150.826 144.998 149.924 146.064C149.021 147.131 147.938 147.945 146.672 148.508C145.418 149.07 144.012 149.352 142.453 149.352C140.941 149.352 139.553 149.07 138.287 148.508C137.033 147.945 135.943 147.131 135.018 146.064C134.104 144.998 133.395 143.703 132.891 142.18C132.387 140.656 132.135 138.934 132.135 137.012V135.395C132.135 133.473 132.381 131.756 132.873 130.244C133.377 128.721 134.086 127.426 135 126.359C135.914 125.281 136.998 124.461 138.252 123.898C139.518 123.336 140.906 123.055 142.418 123.055C143.977 123.055 145.383 123.336 146.637 123.898C147.902 124.461 148.986 125.281 149.889 126.359C150.803 127.426 151.5 128.721 151.98 130.244C152.473 131.756 152.719 133.473 152.719 135.395ZM149.361 137.012V135.359C149.361 133.836 149.203 132.488 148.887 131.316C148.582 130.145 148.131 129.16 147.533 128.363C146.936 127.566 146.203 126.963 145.336 126.553C144.48 126.143 143.508 125.938 142.418 125.938C141.363 125.938 140.408 126.143 139.553 126.553C138.709 126.963 137.982 127.566 137.373 128.363C136.775 129.16 136.312 130.145 135.984 131.316C135.656 132.488 135.492 133.836 135.492 135.359V137.012C135.492 138.547 135.656 139.906 135.984 141.09C136.312 142.262 136.781 143.252 137.391 144.061C138.012 144.857 138.744 145.461 139.588 145.871C140.443 146.281 141.398 146.486 142.453 146.486C143.555 146.486 144.533 146.281 145.389 145.871C146.244 145.461 146.965 144.857 147.551 144.061C148.148 143.252 148.6 142.262 148.904 141.09C149.209 139.906 149.361 138.547 149.361 137.012ZM157.799 123.406H166.271C168.193 123.406 169.816 123.699 171.141 124.285C172.477 124.871 173.49 125.738 174.182 126.887C174.885 128.023 175.236 129.424 175.236 131.088C175.236 132.26 174.996 133.332 174.516 134.305C174.047 135.266 173.367 136.086 172.477 136.766C171.598 137.434 170.543 137.932 169.312 138.26L168.363 138.629H160.4L160.365 135.869H166.377C167.596 135.869 168.609 135.658 169.418 135.236C170.227 134.803 170.836 134.223 171.246 133.496C171.656 132.77 171.861 131.967 171.861 131.088C171.861 130.104 171.668 129.242 171.281 128.504C170.895 127.766 170.285 127.197 169.453 126.799C168.633 126.389 167.572 126.184 166.271 126.184H161.191V149H157.799V123.406ZM172.758 149L166.535 137.398L170.068 137.381L176.379 148.789V149H172.758ZM198.387 125.674L189.914 149H186.451L196.207 123.406H198.439L198.387 125.674ZM205.488 149L196.998 125.674L196.945 123.406H199.178L208.969 149H205.488ZM205.049 139.525V142.303H190.67V139.525H205.049ZM232.084 123.406V149H228.674L215.789 129.26V149H212.396V123.406H215.789L228.727 143.199V123.406H232.084ZM238.781 123.406L245.426 136.256L252.088 123.406H255.938L247.113 139.438V149H243.721V139.438L234.896 123.406H238.781ZM287.068 136.256V145.625C286.752 146.094 286.248 146.621 285.557 147.207C284.865 147.781 283.91 148.285 282.691 148.719C281.484 149.141 279.926 149.352 278.016 149.352C276.457 149.352 275.021 149.082 273.709 148.543C272.408 147.992 271.277 147.195 270.316 146.152C269.367 145.098 268.629 143.82 268.102 142.32C267.586 140.809 267.328 139.098 267.328 137.188V135.201C267.328 133.291 267.551 131.586 267.996 130.086C268.453 128.586 269.121 127.314 270 126.271C270.879 125.217 271.957 124.42 273.234 123.881C274.512 123.33 275.977 123.055 277.629 123.055C279.586 123.055 281.221 123.395 282.533 124.074C283.857 124.742 284.889 125.668 285.627 126.852C286.377 128.035 286.857 129.383 287.068 130.895H283.676C283.523 129.969 283.219 129.125 282.762 128.363C282.316 127.602 281.678 126.992 280.846 126.535C280.014 126.066 278.941 125.832 277.629 125.832C276.445 125.832 275.42 126.049 274.553 126.482C273.686 126.916 272.971 127.537 272.408 128.346C271.846 129.154 271.424 130.133 271.143 131.281C270.873 132.43 270.738 133.725 270.738 135.166V137.188C270.738 138.664 270.908 139.982 271.248 141.143C271.6 142.303 272.098 143.293 272.742 144.113C273.387 144.922 274.154 145.537 275.045 145.959C275.947 146.381 276.943 146.592 278.033 146.592C279.24 146.592 280.219 146.492 280.969 146.293C281.719 146.082 282.305 145.836 282.727 145.555C283.148 145.262 283.471 144.986 283.693 144.729V138.998H277.77V136.256H287.068ZM292.693 123.406H301.166C303.088 123.406 304.711 123.699 306.035 124.285C307.371 124.871 308.385 125.738 309.076 126.887C309.779 128.023 310.131 129.424 310.131 131.088C310.131 132.26 309.891 133.332 309.41 134.305C308.941 135.266 308.262 136.086 307.371 136.766C306.492 137.434 305.438 137.932 304.207 138.26L303.258 138.629H295.295L295.26 135.869H301.271C302.49 135.869 303.504 135.658 304.312 135.236C305.121 134.803 305.73 134.223 306.141 133.496C306.551 132.77 306.756 131.967 306.756 131.088C306.756 130.104 306.562 129.242 306.176 128.504C305.789 127.766 305.18 127.197 304.348 126.799C303.527 126.389 302.467 126.184 301.166 126.184H296.086V149H292.693V123.406ZM307.652 149L301.43 137.398L304.963 137.381L311.273 148.789V149H307.652ZM318.516 123.406V149H315.123V123.406H318.516ZM340.945 146.24V149H327.393V146.24H340.945ZM328.078 123.406V149H324.686V123.406H328.078ZM339.152 134.41V137.17H327.393V134.41H339.152ZM340.77 123.406V126.184H327.393V123.406H340.77ZM353.408 145.115L360.949 123.406H364.623L355.148 149H352.529L353.408 145.115ZM346.359 123.406L353.83 145.115L354.762 149H352.143L342.686 123.406H346.359ZM376.207 125.674L367.734 149H364.271L374.027 123.406H376.26L376.207 125.674ZM383.309 149L374.818 125.674L374.766 123.406H376.998L386.789 149H383.309ZM382.869 139.525V142.303H368.49V139.525H382.869ZM409.904 123.406V149H406.494L393.609 129.26V149H390.217V123.406H393.609L406.547 143.199V123.406H409.904ZM431.367 140.861H434.742C434.566 142.479 434.104 143.926 433.354 145.203C432.604 146.48 431.543 147.494 430.172 148.244C428.801 148.982 427.09 149.352 425.039 149.352C423.539 149.352 422.174 149.07 420.943 148.508C419.725 147.945 418.676 147.148 417.797 146.117C416.918 145.074 416.238 143.826 415.758 142.373C415.289 140.908 415.055 139.279 415.055 137.486V134.938C415.055 133.145 415.289 131.521 415.758 130.068C416.238 128.604 416.924 127.35 417.814 126.307C418.717 125.264 419.801 124.461 421.066 123.898C422.332 123.336 423.756 123.055 425.338 123.055C427.271 123.055 428.906 123.418 430.242 124.145C431.578 124.871 432.615 125.879 433.354 127.168C434.104 128.445 434.566 129.928 434.742 131.615H431.367C431.203 130.42 430.898 129.395 430.453 128.539C430.008 127.672 429.375 127.004 428.555 126.535C427.734 126.066 426.662 125.832 425.338 125.832C424.201 125.832 423.199 126.049 422.332 126.482C421.477 126.916 420.756 127.531 420.17 128.328C419.596 129.125 419.162 130.08 418.869 131.193C418.576 132.307 418.43 133.543 418.43 134.902V137.486C418.43 138.74 418.559 139.918 418.816 141.02C419.086 142.121 419.49 143.088 420.029 143.92C420.568 144.752 421.254 145.408 422.086 145.889C422.918 146.357 423.902 146.592 425.039 146.592C426.48 146.592 427.629 146.363 428.484 145.906C429.34 145.449 429.984 144.793 430.418 143.938C430.863 143.082 431.18 142.057 431.367 140.861ZM455.625 146.24V149H442.072V146.24H455.625ZM442.758 123.406V149H439.365V123.406H442.758ZM453.832 134.41V137.17H442.072V134.41H453.832ZM455.449 123.406V126.184H442.072V123.406H455.449ZM130.518 182.51H135.773C135.668 184.232 135.193 185.762 134.35 187.098C133.518 188.434 132.352 189.477 130.852 190.227C129.363 190.977 127.57 191.352 125.473 191.352C123.832 191.352 122.361 191.07 121.061 190.508C119.76 189.934 118.646 189.113 117.721 188.047C116.807 186.98 116.109 185.691 115.629 184.18C115.148 182.668 114.908 180.975 114.908 179.1V177.324C114.908 175.449 115.154 173.756 115.646 172.244C116.15 170.721 116.865 169.426 117.791 168.359C118.729 167.293 119.848 166.473 121.148 165.898C122.449 165.324 123.902 165.037 125.508 165.037C127.641 165.037 129.439 165.424 130.904 166.197C132.381 166.971 133.523 168.037 134.332 169.396C135.152 170.756 135.645 172.303 135.809 174.037H130.535C130.477 173.006 130.271 172.133 129.92 171.418C129.568 170.691 129.035 170.146 128.32 169.783C127.617 169.408 126.68 169.221 125.508 169.221C124.629 169.221 123.861 169.385 123.205 169.713C122.549 170.041 121.998 170.539 121.553 171.207C121.107 171.875 120.773 172.719 120.551 173.738C120.34 174.746 120.234 175.93 120.234 177.289V179.1C120.234 180.424 120.334 181.59 120.533 182.598C120.732 183.594 121.037 184.438 121.447 185.129C121.869 185.809 122.408 186.324 123.064 186.676C123.732 187.016 124.535 187.186 125.473 187.186C126.574 187.186 127.482 187.01 128.197 186.658C128.912 186.307 129.457 185.785 129.832 185.094C130.219 184.402 130.447 183.541 130.518 182.51ZM149.643 169.783L142.682 191H137.074L146.584 165.406H150.152L149.643 169.783ZM155.426 191L148.447 169.783L147.885 165.406H151.488L161.051 191H155.426ZM155.109 181.473V185.604H141.592V181.473H155.109ZM179.877 186.887V191H166.992V186.887H179.877ZM168.697 165.406V191H163.424V165.406H168.697ZM199.354 186.887V191H186.469V186.887H199.354ZM188.174 165.406V191H182.9V165.406H188.174ZM221.836 165.406V191H216.58V165.406H221.836ZM229.711 165.406V169.537H208.828V165.406H229.711ZM253.248 177.605V178.818C253.248 180.764 252.984 182.51 252.457 184.057C251.93 185.604 251.186 186.922 250.225 188.012C249.264 189.09 248.115 189.916 246.779 190.49C245.455 191.064 243.984 191.352 242.367 191.352C240.762 191.352 239.291 191.064 237.955 190.49C236.631 189.916 235.482 189.09 234.51 188.012C233.537 186.922 232.781 185.604 232.242 184.057C231.715 182.51 231.451 180.764 231.451 178.818V177.605C231.451 175.648 231.715 173.902 232.242 172.367C232.77 170.82 233.514 169.502 234.475 168.412C235.447 167.322 236.596 166.49 237.92 165.916C239.256 165.342 240.727 165.055 242.332 165.055C243.949 165.055 245.42 165.342 246.744 165.916C248.08 166.49 249.229 167.322 250.189 168.412C251.162 169.502 251.912 170.82 252.439 172.367C252.979 173.902 253.248 175.648 253.248 177.605ZM247.922 178.818V177.57C247.922 176.211 247.799 175.016 247.553 173.984C247.307 172.953 246.943 172.086 246.463 171.383C245.982 170.68 245.396 170.152 244.705 169.801C244.014 169.438 243.223 169.256 242.332 169.256C241.441 169.256 240.65 169.438 239.959 169.801C239.279 170.152 238.699 170.68 238.219 171.383C237.75 172.086 237.393 172.953 237.146 173.984C236.9 175.016 236.777 176.211 236.777 177.57V178.818C236.777 180.166 236.9 181.361 237.146 182.404C237.393 183.436 237.756 184.309 238.236 185.023C238.717 185.727 239.303 186.26 239.994 186.623C240.686 186.986 241.477 187.168 242.367 187.168C243.258 187.168 244.049 186.986 244.74 186.623C245.432 186.26 246.012 185.727 246.48 185.023C246.949 184.309 247.307 183.436 247.553 182.404C247.799 181.361 247.922 180.166 247.922 178.818ZM273.498 186.887V191H260.613V186.887H273.498ZM262.318 165.406V191H257.045V165.406H262.318ZM292.975 186.887V191H280.09V186.887H292.975ZM281.795 165.406V191H276.521V165.406H281.795ZM310.236 165.406V191H304.963V165.406H310.236ZM320.432 176.34V180.453H308.795V176.34H320.432ZM321.662 165.406V169.537H308.795V165.406H321.662ZM324.721 165.406H334.266C336.223 165.406 337.904 165.699 339.311 166.285C340.729 166.871 341.818 167.738 342.58 168.887C343.342 170.035 343.723 171.447 343.723 173.123C343.723 174.494 343.488 175.672 343.02 176.656C342.562 177.629 341.912 178.443 341.068 179.1C340.236 179.744 339.258 180.26 338.133 180.646L336.463 181.525H328.166L328.131 177.412H334.301C335.227 177.412 335.994 177.248 336.604 176.92C337.213 176.592 337.67 176.135 337.975 175.549C338.291 174.963 338.449 174.283 338.449 173.51C338.449 172.689 338.297 171.98 337.992 171.383C337.688 170.785 337.225 170.328 336.604 170.012C335.982 169.695 335.203 169.537 334.266 169.537H329.994V191H324.721V165.406ZM339.029 191L333.193 179.592L338.766 179.557L344.672 190.754V191H339.029ZM364.957 186.887V191H351.334V186.887H364.957ZM353.057 165.406V191H347.783V165.406H353.057ZM363.182 175.83V179.838H351.334V175.83H363.182ZM364.939 165.406V169.537H351.334V165.406H364.939ZM385.207 186.887V191H371.584V186.887H385.207ZM373.307 165.406V191H368.033V165.406H373.307ZM383.432 175.83V179.838H371.584V175.83H383.432ZM385.189 165.406V169.537H371.584V165.406H385.189ZM418.078 165.406V191H412.805L402.521 173.844V191H397.248V165.406H402.521L412.822 182.58V165.406H418.078ZM443.689 177.605V178.818C443.689 180.764 443.426 182.51 442.898 184.057C442.371 185.604 441.627 186.922 440.666 188.012C439.705 189.09 438.557 189.916 437.221 190.49C435.896 191.064 434.426 191.352 432.809 191.352C431.203 191.352 429.732 191.064 428.396 190.49C427.072 189.916 425.924 189.09 424.951 188.012C423.979 186.922 423.223 185.604 422.684 184.057C422.156 182.51 421.893 180.764 421.893 178.818V177.605C421.893 175.648 422.156 173.902 422.684 172.367C423.211 170.82 423.955 169.502 424.916 168.412C425.889 167.322 427.037 166.49 428.361 165.916C429.697 165.342 431.168 165.055 432.773 165.055C434.391 165.055 435.861 165.342 437.186 165.916C438.521 166.49 439.67 167.322 440.631 168.412C441.604 169.502 442.354 170.82 442.881 172.367C443.42 173.902 443.689 175.648 443.689 177.605ZM438.363 178.818V177.57C438.363 176.211 438.24 175.016 437.994 173.984C437.748 172.953 437.385 172.086 436.904 171.383C436.424 170.68 435.838 170.152 435.146 169.801C434.455 169.438 433.664 169.256 432.773 169.256C431.883 169.256 431.092 169.438 430.4 169.801C429.721 170.152 429.141 170.68 428.66 171.383C428.191 172.086 427.834 172.953 427.588 173.984C427.342 175.016 427.219 176.211 427.219 177.57V178.818C427.219 180.166 427.342 181.361 427.588 182.404C427.834 183.436 428.197 184.309 428.678 185.023C429.158 185.727 429.744 186.26 430.436 186.623C431.127 186.986 431.918 187.168 432.809 187.168C433.699 187.168 434.49 186.986 435.182 186.623C435.873 186.26 436.453 185.727 436.922 185.023C437.391 184.309 437.748 183.436 437.994 182.404C438.24 181.361 438.363 180.166 438.363 178.818ZM445.377 188.557C445.377 187.807 445.635 187.18 446.15 186.676C446.678 186.172 447.375 185.92 448.242 185.92C449.109 185.92 449.801 186.172 450.316 186.676C450.844 187.18 451.107 187.807 451.107 188.557C451.107 189.307 450.844 189.934 450.316 190.438C449.801 190.941 449.109 191.193 448.242 191.193C447.375 191.193 446.678 190.941 446.15 190.438C445.635 189.934 445.377 189.307 445.377 188.557ZM115.207 207.354V233H110.145V213.189L104.062 215.123V211.133L114.662 207.354H115.207ZM140.783 225.986C140.783 227.592 140.408 228.945 139.658 230.047C138.908 231.137 137.877 231.963 136.564 232.525C135.264 233.076 133.787 233.352 132.135 233.352C130.482 233.352 129 233.076 127.688 232.525C126.375 231.963 125.338 231.137 124.576 230.047C123.814 228.945 123.434 227.592 123.434 225.986C123.434 224.908 123.65 223.936 124.084 223.068C124.518 222.189 125.121 221.439 125.895 220.818C126.68 220.186 127.6 219.705 128.654 219.377C129.709 219.037 130.857 218.867 132.1 218.867C133.764 218.867 135.252 219.16 136.564 219.746C137.877 220.332 138.908 221.158 139.658 222.225C140.408 223.291 140.783 224.545 140.783 225.986ZM135.686 225.652C135.686 224.867 135.533 224.193 135.229 223.631C134.936 223.057 134.52 222.617 133.98 222.312C133.441 222.008 132.814 221.855 132.1 221.855C131.385 221.855 130.758 222.008 130.219 222.312C129.68 222.617 129.258 223.057 128.953 223.631C128.66 224.193 128.514 224.867 128.514 225.652C128.514 226.426 128.66 227.094 128.953 227.656C129.258 228.219 129.68 228.652 130.219 228.957C130.77 229.25 131.408 229.396 132.135 229.396C132.861 229.396 133.488 229.25 134.016 228.957C134.555 228.652 134.965 228.219 135.246 227.656C135.539 227.094 135.686 226.426 135.686 225.652ZM140.238 214.191C140.238 215.492 139.893 216.646 139.201 217.654C138.51 218.65 137.549 219.43 136.318 219.992C135.1 220.555 133.705 220.836 132.135 220.836C130.553 220.836 129.146 220.555 127.916 219.992C126.686 219.43 125.725 218.65 125.033 217.654C124.342 216.646 123.996 215.492 123.996 214.191C123.996 212.645 124.342 211.344 125.033 210.289C125.736 209.223 126.697 208.414 127.916 207.863C129.146 207.312 130.541 207.037 132.1 207.037C133.682 207.037 135.082 207.312 136.301 207.863C137.531 208.414 138.492 209.223 139.184 210.289C139.887 211.344 140.238 212.645 140.238 214.191ZM135.176 214.42C135.176 213.729 135.053 213.131 134.807 212.627C134.561 212.111 134.209 211.713 133.752 211.432C133.307 211.15 132.756 211.01 132.1 211.01C131.467 211.01 130.922 211.145 130.465 211.414C130.02 211.684 129.674 212.076 129.428 212.592C129.193 213.096 129.076 213.705 129.076 214.42C129.076 215.111 129.193 215.721 129.428 216.248C129.674 216.764 130.025 217.168 130.482 217.461C130.939 217.754 131.49 217.9 132.135 217.9C132.779 217.9 133.324 217.754 133.77 217.461C134.227 217.168 134.572 216.764 134.807 216.248C135.053 215.721 135.176 215.111 135.176 214.42ZM161.438 217.953V222.383C161.438 224.305 161.232 225.963 160.822 227.357C160.412 228.74 159.82 229.877 159.047 230.768C158.285 231.646 157.377 232.297 156.322 232.719C155.268 233.141 154.096 233.352 152.807 233.352C151.775 233.352 150.814 233.223 149.924 232.965C149.033 232.695 148.23 232.279 147.516 231.717C146.812 231.154 146.203 230.445 145.688 229.59C145.184 228.723 144.797 227.691 144.527 226.496C144.258 225.301 144.123 223.93 144.123 222.383V217.953C144.123 216.031 144.328 214.385 144.738 213.014C145.16 211.631 145.752 210.5 146.514 209.621C147.287 208.742 148.201 208.098 149.256 207.688C150.311 207.266 151.482 207.055 152.771 207.055C153.803 207.055 154.758 207.189 155.637 207.459C156.527 207.717 157.33 208.121 158.045 208.672C158.76 209.223 159.369 209.932 159.873 210.799C160.377 211.654 160.764 212.68 161.033 213.875C161.303 215.059 161.438 216.418 161.438 217.953ZM156.357 223.051V217.268C156.357 216.342 156.305 215.533 156.199 214.842C156.105 214.15 155.959 213.564 155.76 213.084C155.561 212.592 155.314 212.193 155.021 211.889C154.729 211.584 154.395 211.361 154.02 211.221C153.645 211.08 153.229 211.01 152.771 211.01C152.197 211.01 151.688 211.121 151.242 211.344C150.809 211.566 150.439 211.924 150.135 212.416C149.83 212.896 149.596 213.541 149.432 214.35C149.279 215.146 149.203 216.119 149.203 217.268V223.051C149.203 223.977 149.25 224.791 149.344 225.494C149.449 226.197 149.602 226.801 149.801 227.305C150.012 227.797 150.258 228.201 150.539 228.518C150.832 228.822 151.166 229.045 151.541 229.186C151.928 229.326 152.35 229.396 152.807 229.396C153.369 229.396 153.867 229.285 154.301 229.062C154.746 228.828 155.121 228.465 155.426 227.973C155.742 227.469 155.977 226.812 156.129 226.004C156.281 225.195 156.357 224.211 156.357 223.051ZM182.109 217.953V222.383C182.109 224.305 181.904 225.963 181.494 227.357C181.084 228.74 180.492 229.877 179.719 230.768C178.957 231.646 178.049 232.297 176.994 232.719C175.939 233.141 174.768 233.352 173.479 233.352C172.447 233.352 171.486 233.223 170.596 232.965C169.705 232.695 168.902 232.279 168.188 231.717C167.484 231.154 166.875 230.445 166.359 229.59C165.855 228.723 165.469 227.691 165.199 226.496C164.93 225.301 164.795 223.93 164.795 222.383V217.953C164.795 216.031 165 214.385 165.41 213.014C165.832 211.631 166.424 210.5 167.186 209.621C167.959 208.742 168.873 208.098 169.928 207.688C170.982 207.266 172.154 207.055 173.443 207.055C174.475 207.055 175.43 207.189 176.309 207.459C177.199 207.717 178.002 208.121 178.717 208.672C179.432 209.223 180.041 209.932 180.545 210.799C181.049 211.654 181.436 212.68 181.705 213.875C181.975 215.059 182.109 216.418 182.109 217.953ZM177.029 223.051V217.268C177.029 216.342 176.977 215.533 176.871 214.842C176.777 214.15 176.631 213.564 176.432 213.084C176.232 212.592 175.986 212.193 175.693 211.889C175.4 211.584 175.066 211.361 174.691 211.221C174.316 211.08 173.9 211.01 173.443 211.01C172.869 211.01 172.359 211.121 171.914 211.344C171.48 211.566 171.111 211.924 170.807 212.416C170.502 212.896 170.268 213.541 170.104 214.35C169.951 215.146 169.875 216.119 169.875 217.268V223.051C169.875 223.977 169.922 224.791 170.016 225.494C170.121 226.197 170.273 226.801 170.473 227.305C170.684 227.797 170.93 228.201 171.211 228.518C171.504 228.822 171.838 229.045 172.213 229.186C172.6 229.326 173.021 229.396 173.479 229.396C174.041 229.396 174.539 229.285 174.973 229.062C175.418 228.828 175.793 228.465 176.098 227.973C176.414 227.469 176.648 226.812 176.801 226.004C176.953 225.195 177.029 224.211 177.029 223.051ZM190.74 218.006H193.447C194.314 218.006 195.029 217.859 195.592 217.566C196.154 217.262 196.57 216.84 196.84 216.301C197.121 215.75 197.262 215.111 197.262 214.385C197.262 213.729 197.133 213.148 196.875 212.645C196.629 212.129 196.248 211.73 195.732 211.449C195.217 211.156 194.566 211.01 193.781 211.01C193.16 211.01 192.586 211.133 192.059 211.379C191.531 211.625 191.109 211.971 190.793 212.416C190.477 212.861 190.318 213.4 190.318 214.033H185.238C185.238 212.627 185.613 211.402 186.363 210.359C187.125 209.316 188.145 208.502 189.422 207.916C190.699 207.33 192.105 207.037 193.641 207.037C195.375 207.037 196.893 207.318 198.193 207.881C199.494 208.432 200.508 209.246 201.234 210.324C201.961 211.402 202.324 212.738 202.324 214.332C202.324 215.141 202.137 215.926 201.762 216.688C201.387 217.438 200.848 218.117 200.145 218.727C199.453 219.324 198.609 219.805 197.613 220.168C196.617 220.52 195.498 220.695 194.256 220.695H190.74V218.006ZM190.74 221.855V219.236H194.256C195.65 219.236 196.875 219.395 197.93 219.711C198.984 220.027 199.869 220.484 200.584 221.082C201.299 221.668 201.838 222.365 202.201 223.174C202.564 223.971 202.746 224.855 202.746 225.828C202.746 227.023 202.518 228.09 202.061 229.027C201.604 229.953 200.959 230.738 200.127 231.383C199.307 232.027 198.346 232.52 197.244 232.859C196.143 233.188 194.941 233.352 193.641 233.352C192.562 233.352 191.502 233.205 190.459 232.912C189.428 232.607 188.49 232.156 187.646 231.559C186.814 230.949 186.146 230.188 185.643 229.273C185.15 228.348 184.904 227.252 184.904 225.986H189.984C189.984 226.643 190.148 227.229 190.477 227.744C190.805 228.26 191.256 228.664 191.83 228.957C192.416 229.25 193.066 229.396 193.781 229.396C194.59 229.396 195.281 229.25 195.855 228.957C196.441 228.652 196.887 228.23 197.191 227.691C197.508 227.141 197.666 226.502 197.666 225.775C197.666 224.838 197.496 224.088 197.156 223.525C196.816 222.951 196.33 222.529 195.697 222.26C195.064 221.99 194.314 221.855 193.447 221.855H190.74ZM224.156 223.438V227.41H205.717L205.471 224.334L216.141 207.406H220.166L215.807 214.701L210.498 223.438H224.156ZM221.256 207.406V233H216.193V207.406H221.256ZM231.662 221.346L227.619 220.379L229.078 207.406H243.457V211.502H233.244L232.611 217.18C232.951 216.98 233.467 216.77 234.158 216.547C234.85 216.312 235.623 216.195 236.479 216.195C237.721 216.195 238.822 216.389 239.783 216.775C240.744 217.162 241.559 217.725 242.227 218.463C242.906 219.201 243.422 220.104 243.773 221.17C244.125 222.236 244.301 223.443 244.301 224.791C244.301 225.928 244.125 227.012 243.773 228.043C243.422 229.062 242.889 229.977 242.174 230.785C241.459 231.582 240.562 232.209 239.484 232.666C238.406 233.123 237.129 233.352 235.652 233.352C234.551 233.352 233.484 233.188 232.453 232.859C231.434 232.531 230.514 232.045 229.693 231.4C228.885 230.756 228.234 229.977 227.742 229.062C227.262 228.137 227.01 227.082 226.986 225.898H232.014C232.084 226.625 232.271 227.252 232.576 227.779C232.893 228.295 233.309 228.693 233.824 228.975C234.34 229.256 234.943 229.396 235.635 229.396C236.279 229.396 236.83 229.273 237.287 229.027C237.744 228.781 238.113 228.441 238.395 228.008C238.676 227.562 238.881 227.047 239.01 226.461C239.15 225.863 239.221 225.219 239.221 224.527C239.221 223.836 239.139 223.209 238.975 222.646C238.811 222.084 238.559 221.598 238.219 221.188C237.879 220.777 237.445 220.461 236.918 220.238C236.402 220.016 235.799 219.904 235.107 219.904C234.17 219.904 233.443 220.051 232.928 220.344C232.424 220.637 232.002 220.971 231.662 221.346ZM260.631 207.143H261.369V211.186H261.07C259.734 211.186 258.545 211.385 257.502 211.783C256.459 212.182 255.574 212.75 254.848 213.488C254.133 214.215 253.582 215.094 253.195 216.125C252.82 217.156 252.633 218.311 252.633 219.588V223.842C252.633 224.756 252.721 225.564 252.896 226.268C253.084 226.959 253.348 227.539 253.688 228.008C254.039 228.465 254.449 228.811 254.918 229.045C255.387 229.268 255.914 229.379 256.5 229.379C257.051 229.379 257.549 229.262 257.994 229.027C258.451 228.793 258.838 228.465 259.154 228.043C259.482 227.609 259.729 227.105 259.893 226.531C260.068 225.945 260.156 225.307 260.156 224.615C260.156 223.924 260.068 223.285 259.893 222.699C259.729 222.113 259.482 221.609 259.154 221.188C258.826 220.754 258.428 220.42 257.959 220.186C257.49 219.951 256.963 219.834 256.377 219.834C255.58 219.834 254.877 220.021 254.268 220.396C253.67 220.76 253.201 221.229 252.861 221.803C252.521 222.377 252.34 222.98 252.316 223.613L250.787 222.629C250.822 221.727 251.01 220.871 251.35 220.062C251.701 219.254 252.182 218.539 252.791 217.918C253.412 217.285 254.156 216.793 255.023 216.441C255.891 216.078 256.869 215.896 257.959 215.896C259.154 215.896 260.203 216.125 261.105 216.582C262.02 217.039 262.781 217.666 263.391 218.463C264 219.26 264.457 220.18 264.762 221.223C265.066 222.266 265.219 223.379 265.219 224.562C265.219 225.805 265.014 226.959 264.604 228.025C264.205 229.092 263.625 230.023 262.863 230.82C262.113 231.617 261.211 232.238 260.156 232.684C259.102 233.129 257.918 233.352 256.605 233.352C255.246 233.352 254.01 233.105 252.896 232.613C251.795 232.109 250.846 231.406 250.049 230.504C249.252 229.602 248.637 228.529 248.203 227.287C247.781 226.045 247.57 224.686 247.57 223.209V221.24C247.57 219.178 247.869 217.291 248.467 215.58C249.076 213.857 249.949 212.369 251.086 211.115C252.223 209.85 253.594 208.871 255.199 208.18C256.805 207.488 258.615 207.143 260.631 207.143ZM285.627 207.406V210.131L275.73 233H270.387L280.283 211.361H267.539V207.406H285.627ZM306.299 207.406V210.131L296.402 233H291.059L300.955 211.361H288.211V207.406H306.299ZM326.812 217.953V222.383C326.812 224.305 326.607 225.963 326.197 227.357C325.787 228.74 325.195 229.877 324.422 230.768C323.66 231.646 322.752 232.297 321.697 232.719C320.643 233.141 319.471 233.352 318.182 233.352C317.15 233.352 316.189 233.223 315.299 232.965C314.408 232.695 313.605 232.279 312.891 231.717C312.188 231.154 311.578 230.445 311.062 229.59C310.559 228.723 310.172 227.691 309.902 226.496C309.633 225.301 309.498 223.93 309.498 222.383V217.953C309.498 216.031 309.703 214.385 310.113 213.014C310.535 211.631 311.127 210.5 311.889 209.621C312.662 208.742 313.576 208.098 314.631 207.688C315.686 207.266 316.857 207.055 318.146 207.055C319.178 207.055 320.133 207.189 321.012 207.459C321.902 207.717 322.705 208.121 323.42 208.672C324.135 209.223 324.744 209.932 325.248 210.799C325.752 211.654 326.139 212.68 326.408 213.875C326.678 215.059 326.812 216.418 326.812 217.953ZM321.732 223.051V217.268C321.732 216.342 321.68 215.533 321.574 214.842C321.48 214.15 321.334 213.564 321.135 213.084C320.936 212.592 320.689 212.193 320.396 211.889C320.104 211.584 319.77 211.361 319.395 211.221C319.02 211.08 318.604 211.01 318.146 211.01C317.572 211.01 317.062 211.121 316.617 211.344C316.184 211.566 315.814 211.924 315.51 212.416C315.205 212.896 314.971 213.541 314.807 214.35C314.654 215.146 314.578 216.119 314.578 217.268V223.051C314.578 223.977 314.625 224.791 314.719 225.494C314.824 226.197 314.977 226.801 315.176 227.305C315.387 227.797 315.633 228.201 315.914 228.518C316.207 228.822 316.541 229.045 316.916 229.186C317.303 229.326 317.725 229.396 318.182 229.396C318.744 229.396 319.242 229.285 319.676 229.062C320.121 228.828 320.496 228.465 320.801 227.973C321.117 227.469 321.352 226.812 321.504 226.004C321.656 225.195 321.732 224.211 321.732 223.051ZM341.402 207.406L332.016 235.197H328.254L337.641 207.406H341.402ZM355.957 207.354V233H350.895V213.189L344.812 215.123V211.133L355.412 207.354H355.957ZM369.053 221.346L365.01 220.379L366.469 207.406H380.848V211.502H370.635L370.002 217.18C370.342 216.98 370.857 216.77 371.549 216.547C372.24 216.312 373.014 216.195 373.869 216.195C375.111 216.195 376.213 216.389 377.174 216.775C378.135 217.162 378.949 217.725 379.617 218.463C380.297 219.201 380.812 220.104 381.164 221.17C381.516 222.236 381.691 223.443 381.691 224.791C381.691 225.928 381.516 227.012 381.164 228.043C380.812 229.062 380.279 229.977 379.564 230.785C378.85 231.582 377.953 232.209 376.875 232.666C375.797 233.123 374.52 233.352 373.043 233.352C371.941 233.352 370.875 233.188 369.844 232.859C368.824 232.531 367.904 232.045 367.084 231.4C366.275 230.756 365.625 229.977 365.133 229.062C364.652 228.137 364.4 227.082 364.377 225.898H369.404C369.475 226.625 369.662 227.252 369.967 227.779C370.283 228.295 370.699 228.693 371.215 228.975C371.73 229.256 372.334 229.396 373.025 229.396C373.67 229.396 374.221 229.273 374.678 229.027C375.135 228.781 375.504 228.441 375.785 228.008C376.066 227.562 376.271 227.047 376.4 226.461C376.541 225.863 376.611 225.219 376.611 224.527C376.611 223.836 376.529 223.209 376.365 222.646C376.201 222.084 375.949 221.598 375.609 221.188C375.27 220.777 374.836 220.461 374.309 220.238C373.793 220.016 373.189 219.904 372.498 219.904C371.561 219.904 370.834 220.051 370.318 220.344C369.814 220.637 369.393 220.971 369.053 221.346ZM389.725 221.346L385.682 220.379L387.141 207.406H401.52V211.502H391.307L390.674 217.18C391.014 216.98 391.529 216.77 392.221 216.547C392.912 216.312 393.686 216.195 394.541 216.195C395.783 216.195 396.885 216.389 397.846 216.775C398.807 217.162 399.621 217.725 400.289 218.463C400.969 219.201 401.484 220.104 401.836 221.17C402.188 222.236 402.363 223.443 402.363 224.791C402.363 225.928 402.188 227.012 401.836 228.043C401.484 229.062 400.951 229.977 400.236 230.785C399.521 231.582 398.625 232.209 397.547 232.666C396.469 233.123 395.191 233.352 393.715 233.352C392.613 233.352 391.547 233.188 390.516 232.859C389.496 232.531 388.576 232.045 387.756 231.4C386.947 230.756 386.297 229.977 385.805 229.062C385.324 228.137 385.072 227.082 385.049 225.898H390.076C390.146 226.625 390.334 227.252 390.639 227.779C390.955 228.295 391.371 228.693 391.887 228.975C392.402 229.256 393.006 229.396 393.697 229.396C394.342 229.396 394.893 229.273 395.35 229.027C395.807 228.781 396.176 228.441 396.457 228.008C396.738 227.562 396.943 227.047 397.072 226.461C397.213 225.863 397.283 225.219 397.283 224.527C397.283 223.836 397.201 223.209 397.037 222.646C396.873 222.084 396.621 221.598 396.281 221.188C395.941 220.777 395.508 220.461 394.98 220.238C394.465 220.016 393.861 219.904 393.17 219.904C392.232 219.904 391.506 220.051 390.99 220.344C390.486 220.637 390.064 220.971 389.725 221.346ZM410.818 218.006H413.525C414.393 218.006 415.107 217.859 415.67 217.566C416.232 217.262 416.648 216.84 416.918 216.301C417.199 215.75 417.34 215.111 417.34 214.385C417.34 213.729 417.211 213.148 416.953 212.645C416.707 212.129 416.326 211.73 415.811 211.449C415.295 211.156 414.645 211.01 413.859 211.01C413.238 211.01 412.664 211.133 412.137 211.379C411.609 211.625 411.188 211.971 410.871 212.416C410.555 212.861 410.396 213.4 410.396 214.033H405.316C405.316 212.627 405.691 211.402 406.441 210.359C407.203 209.316 408.223 208.502 409.5 207.916C410.777 207.33 412.184 207.037 413.719 207.037C415.453 207.037 416.971 207.318 418.271 207.881C419.572 208.432 420.586 209.246 421.312 210.324C422.039 211.402 422.402 212.738 422.402 214.332C422.402 215.141 422.215 215.926 421.84 216.688C421.465 217.438 420.926 218.117 420.223 218.727C419.531 219.324 418.688 219.805 417.691 220.168C416.695 220.52 415.576 220.695 414.334 220.695H410.818V218.006ZM410.818 221.855V219.236H414.334C415.729 219.236 416.953 219.395 418.008 219.711C419.062 220.027 419.947 220.484 420.662 221.082C421.377 221.668 421.916 222.365 422.279 223.174C422.643 223.971 422.824 224.855 422.824 225.828C422.824 227.023 422.596 228.09 422.139 229.027C421.682 229.953 421.037 230.738 420.205 231.383C419.385 232.027 418.424 232.52 417.322 232.859C416.221 233.188 415.02 233.352 413.719 233.352C412.641 233.352 411.58 233.205 410.537 232.912C409.506 232.607 408.568 232.156 407.725 231.559C406.893 230.949 406.225 230.188 405.721 229.273C405.229 228.348 404.982 227.252 404.982 225.986H410.062C410.062 226.643 410.227 227.229 410.555 227.744C410.883 228.26 411.334 228.664 411.908 228.957C412.494 229.25 413.145 229.396 413.859 229.396C414.668 229.396 415.359 229.25 415.934 228.957C416.52 228.652 416.965 228.23 417.27 227.691C417.586 227.141 417.744 226.502 417.744 225.775C417.744 224.838 417.574 224.088 417.234 223.525C416.895 222.951 416.408 222.529 415.775 222.26C415.143 221.99 414.393 221.855 413.525 221.855H410.818ZM431.49 218.006H434.197C435.064 218.006 435.779 217.859 436.342 217.566C436.904 217.262 437.32 216.84 437.59 216.301C437.871 215.75 438.012 215.111 438.012 214.385C438.012 213.729 437.883 213.148 437.625 212.645C437.379 212.129 436.998 211.73 436.482 211.449C435.967 211.156 435.316 211.01 434.531 211.01C433.91 211.01 433.336 211.133 432.809 211.379C432.281 211.625 431.859 211.971 431.543 212.416C431.227 212.861 431.068 213.4 431.068 214.033H425.988C425.988 212.627 426.363 211.402 427.113 210.359C427.875 209.316 428.895 208.502 430.172 207.916C431.449 207.33 432.855 207.037 434.391 207.037C436.125 207.037 437.643 207.318 438.943 207.881C440.244 208.432 441.258 209.246 441.984 210.324C442.711 211.402 443.074 212.738 443.074 214.332C443.074 215.141 442.887 215.926 442.512 216.688C442.137 217.438 441.598 218.117 440.895 218.727C440.203 219.324 439.359 219.805 438.363 220.168C437.367 220.52 436.248 220.695 435.006 220.695H431.49V218.006ZM431.49 221.855V219.236H435.006C436.4 219.236 437.625 219.395 438.68 219.711C439.734 220.027 440.619 220.484 441.334 221.082C442.049 221.668 442.588 222.365 442.951 223.174C443.314 223.971 443.496 224.855 443.496 225.828C443.496 227.023 443.268 228.09 442.811 229.027C442.354 229.953 441.709 230.738 440.877 231.383C440.057 232.027 439.096 232.52 437.994 232.859C436.893 233.188 435.691 233.352 434.391 233.352C433.312 233.352 432.252 233.205 431.209 232.912C430.178 232.607 429.24 232.156 428.396 231.559C427.564 230.949 426.896 230.188 426.393 229.273C425.9 228.348 425.654 227.252 425.654 225.986H430.734C430.734 226.643 430.898 227.229 431.227 227.744C431.555 228.26 432.006 228.664 432.58 228.957C433.166 229.25 433.816 229.396 434.531 229.396C435.34 229.396 436.031 229.25 436.605 228.957C437.191 228.652 437.637 228.23 437.941 227.691C438.258 227.141 438.416 226.502 438.416 225.775C438.416 224.838 438.246 224.088 437.906 223.525C437.566 222.951 437.08 222.529 436.447 222.26C435.814 221.99 435.064 221.855 434.197 221.855H431.49ZM451.74 221.346L447.697 220.379L449.156 207.406H463.535V211.502H453.322L452.689 217.18C453.029 216.98 453.545 216.77 454.236 216.547C454.928 216.312 455.701 216.195 456.557 216.195C457.799 216.195 458.9 216.389 459.861 216.775C460.822 217.162 461.637 217.725 462.305 218.463C462.984 219.201 463.5 220.104 463.852 221.17C464.203 222.236 464.379 223.443 464.379 224.791C464.379 225.928 464.203 227.012 463.852 228.043C463.5 229.062 462.967 229.977 462.252 230.785C461.537 231.582 460.641 232.209 459.562 232.666C458.484 233.123 457.207 233.352 455.73 233.352C454.629 233.352 453.562 233.188 452.531 232.859C451.512 232.531 450.592 232.045 449.771 231.4C448.963 230.756 448.312 229.977 447.82 229.062C447.34 228.137 447.088 227.082 447.064 225.898H452.092C452.162 226.625 452.35 227.252 452.654 227.779C452.971 228.295 453.387 228.693 453.902 228.975C454.418 229.256 455.021 229.396 455.713 229.396C456.357 229.396 456.908 229.273 457.365 229.027C457.822 228.781 458.191 228.441 458.473 228.008C458.754 227.562 458.959 227.047 459.088 226.461C459.229 225.863 459.299 225.219 459.299 224.527C459.299 223.836 459.217 223.209 459.053 222.646C458.889 222.084 458.637 221.598 458.297 221.188C457.957 220.777 457.523 220.461 456.996 220.238C456.48 220.016 455.877 219.904 455.186 219.904C454.248 219.904 453.521 220.051 453.006 220.344C452.502 220.637 452.08 220.971 451.74 221.346Z" fill="white"/>
</svg>
