<?xml version="1.0" encoding="utf-8"?>
<!-- Generator: Adobe Illustrator 16.0.0, SVG Export Plug-In . SVG Version: 6.00 Build 0)  -->
<!DOCTYPE svg PUBLIC "-//W3C//DTD SVG 1.1//EN" "http://www.w3.org/Graphics/SVG/1.1/DTD/svg11.dtd">
<svg version="1.1" id="Layer_1" xmlns="http://www.w3.org/2000/svg" xmlns:xlink="http://www.w3.org/1999/xlink" x="0px" y="0px"
	 width="325.095px" height="250.692px" viewBox="0 0 325.095 250.692" enable-background="new 0 0 325.095 250.692"
	 xml:space="preserve">
<g>
	<path fill-rule="evenodd" clip-rule="evenodd" d="M163.766,14.522c1.074,0.095,2.147,0.215,3.223,0.281
		c4.866,0.295,9.677,0.982,14.454,1.945c6.547,1.316,12.916,3.227,19.112,5.711c9.12,3.658,17.609,8.435,25.471,14.337
		c4.208,3.158,8.183,6.584,11.908,10.298c7.243,7.223,13.403,15.272,18.44,24.18c3.567,6.308,6.509,12.893,8.785,19.772
		c0.065,0.196,0.128,0.394,0.221,0.681c-0.311,0.014-0.558,0.034-0.805,0.034c-5.544,0.001-11.088-0.011-16.632,0.019
		c-0.629,0.003-0.889-0.216-1.109-0.772c-2.226-5.604-5.072-10.887-8.314-15.965c-0.333-0.522-0.633-0.774-1.294-0.564
		c-0.456,0.145-0.981,0.099-1.475,0.099c-4.812,0.006-9.625,0.005-14.438,0.005c-0.281,0-0.563,0-0.787,0
		c1.417,5.692,2.827,11.36,4.263,17.132c-0.435,0.024-0.66,0.048-0.885,0.048c-5.425,0.001-10.851-0.003-16.277,0.009
		c-0.492,0.002-0.722-0.089-0.848-0.647c-1.227-5.376-2.593-10.713-4.45-15.915c-0.174-0.486-0.385-0.639-0.892-0.637
		c-28.144,0.011-56.287,0.012-84.43-0.003c-0.559,0-0.765,0.21-0.933,0.698c-1.795,5.2-3.233,10.498-4.414,15.866
		c-0.09,0.406-0.208,0.645-0.718,0.643c-5.543-0.02-11.087-0.013-16.63-0.016c-0.139,0-0.276-0.027-0.501-0.054
		c1.114-5.759,2.51-11.414,4.265-17.124c-0.361,0-0.63,0-0.898,0c-4.788,0-9.578,0.006-14.366-0.008
		c-0.63-0.002-1.262-0.147-1.891-0.143c-0.271,0.001-0.659,0.138-0.795,0.344c-2.846,4.327-5.354,8.844-7.416,13.601
		c-0.42,0.969-0.8,1.955-1.251,2.907c-0.101,0.214-0.424,0.458-0.646,0.46c-5.803,0.024-11.606,0.019-17.41,0.016
		c-0.088,0-0.176-0.028-0.375-0.063c0.682-1.885,1.317-3.739,2.019-5.569c3.44-8.98,7.997-17.359,13.626-25.156
		c5-6.925,10.708-13.203,17.14-18.828c7.186-6.286,15.041-11.574,23.566-15.861c6.98-3.51,14.26-6.232,21.821-8.204
		c4.891-1.275,9.849-2.218,14.868-2.791c2.571-0.294,5.162-0.415,7.743-0.621c0.301-0.025,0.599-0.094,0.898-0.142
		C157.727,14.522,160.746,14.522,163.766,14.522z M124.394,57.371c23.251,0,46.391,0,69.583,0c-0.08-0.177-0.125-0.308-0.193-0.424
		c-2.897-4.868-6.189-9.442-10.169-13.495c-4.148-4.225-8.793-7.719-14.371-9.86c-5.284-2.03-10.701-2.471-16.206-1.188
		c-6.175,1.438-11.376,4.697-16.018,8.919c-4.12,3.749-7.548,8.074-10.581,12.727C125.74,55.12,125.096,56.229,124.394,57.371z
		 M206.604,44.405c0.091,0.249,0.104,0.318,0.139,0.372c2.503,3.929,4.726,8.015,6.689,12.239c0.181,0.391,0.439,0.401,0.779,0.401
		c2.972-0.007,5.943-0.003,8.914-0.007c0.17,0,0.341-0.03,0.605-0.059C218.487,52.4,212.876,48.122,206.604,44.405z M111.755,44.553
		c-6.2,3.554-11.813,7.87-17.045,12.791c0.129,0.035,0.19,0.066,0.251,0.066c3.133,0.003,6.267,0.011,9.4-0.014
		c0.211-0.004,0.52-0.216,0.615-0.412C107.039,52.74,109.239,48.572,111.755,44.553z"/>
	<path fill-rule="evenodd" clip-rule="evenodd" d="M265.315,160.373c-12.915,41.457-54.234,78.288-108.428,77.156
		c-53.629-1.121-91.954-38.718-103.766-77.192c0.272,0,0.528,0,0.785,0c5.52,0,11.04,0.016,16.56-0.021
		c0.668-0.004,0.933,0.229,1.159,0.802c2.238,5.654,5.112,10.978,8.407,16.081c0.259,0.403,0.47,0.615,1.009,0.448
		c0.482-0.151,1.023-0.151,1.538-0.152c4.859-0.01,9.72-0.007,14.579-0.007c0.257,0,0.514,0,0.907,0
		c-1.715-5.652-2.885-11.347-3.977-17.116c5.85,0,11.599,0,17.41,0c0.34,1.427,0.626,2.874,1.03,4.286
		c1.166,4.079,2.386,8.144,3.566,12.22c0.146,0.505,0.421,0.622,0.914,0.62c28.144-0.011,56.287-0.011,84.43,0.002
		c0.498,0,0.723-0.135,0.9-0.631c1.864-5.223,3.266-10.573,4.461-15.98c0.084-0.38,0.199-0.562,0.631-0.56
		c5.521,0.014,11.04,0.009,16.56,0.011c0.092,0.002,0.185,0.02,0.371,0.041c-1.114,5.729-2.243,11.421-4,17.107
		c0.334,0,0.6,0,0.865,0c4.883,0,9.766-0.003,14.649,0.007c0.493,0,1.017-0.018,1.468,0.142c0.6,0.21,0.845-0.061,1.121-0.494
		c3.284-5.167,6.19-10.528,8.444-16.23c0.136-0.345,0.254-0.589,0.729-0.588c5.804,0.021,11.607,0.014,17.411,0.016
		C265.116,160.341,265.185,160.355,265.315,160.373z M124.512,194.717c-0.062,0.066-0.124,0.132-0.186,0.198
		c1.989,2.845,3.884,5.762,5.988,8.521c3.637,4.769,7.879,8.924,12.999,12.124c4.19,2.618,8.709,4.33,13.644,4.75
		c3.184,0.271,6.348-0.021,9.448-0.878c6.115-1.692,11.223-5.075,15.779-9.373c4.415-4.167,7.993-9.005,11.162-14.159
		c0.222-0.36,0.402-0.744,0.637-1.183C170.739,194.717,147.625,194.717,124.512,194.717z M94.662,194.7
		c5.328,5.005,10.928,9.302,17.091,12.858c-0.767-1.391-1.625-2.705-2.37-4.083c-1.476-2.728-2.884-5.493-4.342-8.231
		c-0.12-0.226-0.401-0.52-0.61-0.522C101.249,194.688,98.066,194.7,94.662,194.7z M206.641,207.501
		c6.221-3.522,11.827-7.801,17.124-12.803c-3.301,0-6.385,0.013-9.469-0.013c-0.493-0.004-0.733,0.159-0.955,0.589
		c-1.494,2.892-2.996,5.779-4.542,8.643C208.137,205.143,207.363,206.309,206.641,207.501z"/>
	<path fill-rule="evenodd" clip-rule="evenodd" d="M173.784,129.504c1.188-3.053,2.33-5.941,3.437-8.845
		c1.396-3.66,2.758-7.332,4.143-10.997c0.397-1.052,1.237-1.545,2.303-1.559c2.759-0.037,5.519-0.039,8.278-0.005
		c1.898,0.023,2.709,1.407,1.933,3.142c-3.231,7.217-6.449,14.439-9.672,21.659c-1.482,3.32-2.991,6.629-4.439,9.963
		c-0.534,1.233-1.433,1.718-2.711,1.712c-2.193-0.013-4.387,0.001-6.58-0.007c-1.122-0.004-1.995-0.402-2.486-1.502
		c-2.327-5.229-4.683-10.446-7.003-15.678c-0.446-1.005-0.78-2.061-1.167-3.092c-0.097-0.259-0.204-0.514-0.251-0.634
		c-2.979,6.336-5.993,12.714-8.973,19.108c-0.59,1.264-1.487,1.84-2.88,1.812c-2.169-0.044-4.34-0.04-6.509-0.002
		c-1.423,0.026-2.324-0.549-2.871-1.892c-2.486-6.104-5.018-12.191-7.535-18.283c-1.835-4.444-3.671-8.887-5.511-13.328
		c-0.543-1.313-0.151-2.35,1.145-2.959c0.146-0.067,0.315-0.119,0.473-0.119c2.851,0.024,5.701,0.063,8.552,0.087
		c1.641,0.015,2.283,0.465,2.825,1.995c2.271,6.403,4.547,12.805,6.823,19.206c0.04,0.109,0.109,0.206,0.194,0.364
		c0.603-1.462,1.161-2.896,1.778-4.303c2.304-5.24,4.631-10.47,6.937-15.711c0.473-1.073,1.259-1.568,2.431-1.556
		c2.146,0.022,4.292,0.003,6.438,0.007c1.388,0.004,2.191,0.563,2.712,1.824c2.612,6.334,5.23,12.665,7.85,18.996
		C173.506,129.054,173.601,129.183,173.784,129.504z"/>
	<path fill-rule="evenodd" clip-rule="evenodd" d="M235.963,123.605c-1.846,3.967-3.683,7.924-5.529,11.876
		c-1.133,2.425-2.306,4.831-3.416,7.268c-0.577,1.264-1.488,1.853-2.878,1.831c-2.146-0.035-4.293-0.006-6.44-0.011
		c-1.421-0.003-2.11-0.487-2.647-1.787c-4.01-9.714-8.024-19.426-12.036-29.139c-0.368-0.891-0.721-1.787-1.101-2.669
		c-0.527-1.223-0.006-2.004,0.793-2.742c0.155-0.144,0.426-0.229,0.643-0.228c2.922,0.016,5.844,0.056,8.766,0.081
		c1.424,0.015,1.983,0.396,2.463,1.736c2.306,6.449,4.61,12.9,6.916,19.35c0.053,0.147,0.129,0.286,0.163,0.363
		c2.903-6.596,5.819-13.202,8.716-19.817c0.48-1.098,1.253-1.644,2.457-1.635c2.218,0.018,4.435,0.016,6.652,0
		c1.167-0.008,1.95,0.487,2.414,1.576c2.737,6.435,5.492,12.858,8.242,19.287c0.053,0.122,0.115,0.244,0.226,0.479
		c0.357-0.972,0.662-1.851,1-2.716c2.241-5.745,4.484-11.49,6.74-17.229c0.353-0.9,1.061-1.381,2.025-1.386
		c2.807-0.017,5.614-0.024,8.421,0.001c1.565,0.013,2.454,1.399,1.828,2.844c-2.418,5.572-4.849,11.143-7.288,16.709
		c-2.241,5.113-4.51,10.215-6.738,15.336c-0.464,1.067-1.248,1.567-2.355,1.578c-2.406,0.021-4.813,0.011-7.218,0.004
		c-1.182-0.001-1.984-0.547-2.457-1.652c-2.151-5.025-4.321-10.043-6.491-15.061C237.213,126.413,236.569,124.979,235.963,123.605z"
		/>
	<path fill-rule="evenodd" clip-rule="evenodd" d="M68.642,129.626c0.535-1.306,1.023-2.57,1.567-3.81
		c1.95-4.445,3.92-8.884,5.883-13.324c0.398-0.901,0.829-1.79,1.188-2.707c0.445-1.133,1.316-1.657,2.453-1.682
		c2.311-0.048,4.624-0.028,6.935-0.008c0.986,0.009,1.696,0.509,2.091,1.416c1.685,3.872,3.379,7.739,5.038,11.622
		c1.132,2.649,2.211,5.322,3.318,7.982c0.035,0.082,0.112,0.146,0.168,0.217c1.032-2.676,2.047-5.342,3.087-7.999
		c1.533-3.91,3.089-7.811,4.62-11.721c0.415-1.058,1.172-1.53,2.284-1.527c2.642,0.007,5.284-0.001,7.926,0.003
		c1.919,0.005,2.804,1.297,2.045,3.042c-2.058,4.735-4.143,9.459-6.215,14.188c-2.571,5.865-5.151,11.727-7.704,17.601
		c-0.47,1.081-1.244,1.637-2.392,1.645c-2.43,0.019-4.859,0.02-7.29,0c-1.111-0.01-1.902-0.521-2.357-1.581
		c-2.144-5.004-4.306-9.997-6.467-14.991c-0.638-1.474-1.296-2.938-2.005-4.541c-0.621,1.497-1.135,2.877-1.754,4.205
		c-2.057,4.407-4.152,8.796-6.233,13.191c-0.352,0.742-0.716,1.48-1.059,2.228c-0.452,0.986-1.248,1.474-2.294,1.485
		c-2.359,0.028-4.718,0.028-7.077,0c-1.106-0.012-1.904-0.527-2.343-1.596c-2.935-7.139-5.883-14.271-8.829-21.405
		c-1.433-3.47-2.871-6.937-4.303-10.407c-0.509-1.233-0.347-2.012,0.618-2.828c0.2-0.169,0.499-0.315,0.75-0.313
		c2.875,0.007,5.75,0.054,8.625,0.076c1.618,0.013,2.107,0.36,2.651,1.876C63.913,116.49,66.264,123.017,68.642,129.626z"/>
</g>
</svg>
